<svg xmlns:dc="http://purl.org/dc/elements/1.1/" xmlns:cc="http://creativecommons.org/ns#" xmlns:rdf="http://www.w3.org/1999/02/22-rdf-syntax-ns#" xmlns:svg="http://www.w3.org/2000/svg" xmlns="http://www.w3.org/2000/svg" id="Layer_1" height="512" viewBox="0 0 400 512" width="200" version="1.1">
  <mask id="inside_mask">
    <rect x="0" y="0" width="512" height="512" fill="black"/>
    <path d="m 132.12815,162.17747 -31.30978,35.88756 -7.278267,220.90237 3.982164,67.665 15.382783,19.11314 71.2423,1.36933 32.16819,-8.24696 4.44819,-39.40679 -0.65128,-190.4033 -26.88878,-23.67711 27.78423,-42.09597 -46.1822,-50.1944 -41.31968,-1.32959 " id="bottle_inside" fill="white"/><!-- Everything under a black pixel will be invisible -->
  </mask>
  <g mask="url(#inside_mask)">
  <g id="wave">
    <path xmlns="http://www.w3.org/2000/svg" fill="#000000" id="wine" d="M 367.9592,498.86791 V 201.36792 c 0,0 -0.54259,-0.1 -0.99478,-0.1 0,0 -23.06072,-2.3 -36.62585,-2.4 -13.56512,0 -36.71628,2.4 -36.71628,2.4 -11.12341,1.1 -27.40158,1.8 -28.84852,1.9 -1.80869,-0.1 -17.81553,-0.8 -28.93894,-1.9 0,0 -23.33203,-2.3 -36.89716,-2.4 -13.56514,0 -36.89717,2.4 -36.89717,2.4 -11.12339,1.1 -27.49199,1.8 -28.93894,1.9 -1.80867,-0.1 -18.08683,-0.8 -29.11981,-1.9 0,0 -2.80346,-0.3 -7.325161,-0.7 v 298.29999 z" style="fill:#5e1224;fill-opacity:1;stroke-width:0.950969" xmlns:inkscape="http://www.inkscape.org/namespaces/inkscape" inkscape:label="wine"/>
     </g>
     </g>
  <g id="bottle">
    <path d="m193.718 401.34v-87.573c0-7.056-5.74-12.797-12.797-12.797h-48.21c-7.057 0-12.797 5.741-12.797 12.797v87.573c0 7.056 5.74 12.797 12.797 12.797h48.21c7.057 0 12.797-5.741 12.797-12.797zm-15-2.203h-43.804v-83.167h43.804z" id="path2"/>
    <path d="m422.683 74.337c4.445-8.258.647-18.587-8.078-22.007-21.806-8.546-38.174-9.468-48.193-8.694l1.096-5.7c1.362-7.088-4.417-13.506-11.596-12.921-33.002 2.657-46.283 19.273-51.432 29.833-6.126-3.709-14.239-.608-16.154 6.433-5.228 19.227-.041 32.411 5.071 39.973-12.531.927-22.568-1.017-26.283-1.894-9.397-8.926-21.571-17.377-37.339-24.021-3.815-1.607-8.215.181-9.823 4-1.608 3.817.182 8.215 3.999 9.824 19.109 8.052 35.699 20.473 46.966 37.975-1.58 2.994-5.182 8.097-12.88 12.664-3.563 2.113-4.737 6.714-2.624 10.277 2.117 3.568 6.722 4.734 10.276 2.624 5.747-3.409 9.952-7.149 13.019-10.662 3.71 8.958 5.373 16.914 6.114 22.151-6.503 1.702-12.203 5.405-16.406 10.407-5.875-6.992-14.677-11.447-24.504-11.447-14.352 0-26.527 9.497-30.573 22.537-3.495-4.895-7.639-9.376-12.404-13.307-8.261-6.816-13.485-16.197-14.8-26.286-.001-.005 0-.009-.001-.014-.483-3.725-.338-3.26-.338-31.162 0-4.142-3.357-7.5-7.5-7.5s-7.5 3.358-7.5 7.5c0 28.541-.023 26.622.042 28.22-8.562 4.584-19.162 4.755-28.046 0 .069-1.723.044 5.2.044-89.888h27.96v26.667c0 4.142 3.357 7.5 7.5 7.5s7.5-3.358 7.5-7.5v-28.159c4.454-2.264 7.52-6.881 7.52-12.21v-25.85c0-7.554-6.146-13.7-13.7-13.7h-45.6c-7.555 0-13.7 6.146-13.7 13.7v25.85c0 5.329 3.065 9.946 7.52 12.21 0 97.419.14 90.648-.338 94.319-.001.008 0 .016-.001.025-1.318 10.086-6.541 19.463-14.799 26.275-16.046 13.237-25.248 32.747-25.248 53.526v257.883c0 15.556 12.656 28.211 28.212 28.211h82.312c15.556 0 28.211-12.656 28.211-28.211 0-2.76 0-161.108 0-163.992 4.421 2.953 9.615 4.829 15.208 5.267-3.147 4.953-4.979 10.821-4.979 17.112 0 17.647 14.356 32.004 32.004 32.004 9.827 0 18.628-4.455 24.504-11.447 5.875 6.992 14.677 11.447 24.504 11.447 17.646 0 32.003-14.357 32.003-32.004 0-6.291-1.832-12.159-4.979-17.112 16.473-1.291 29.483-15.098 29.483-31.895 0-6.291-1.832-12.159-4.979-17.112 16.472-1.291 29.483-15.097 29.483-31.895s-13.011-30.605-29.483-31.895c3.147-4.953 4.979-10.821 4.979-17.112 0-17.647-14.356-32.004-32.004-32.004-9.826 0-18.628 4.455-24.503 11.447-4.437-5.28-10.544-9.106-17.501-10.666-1.908-15.857-7.97-32.708-18.171-47.48 1.614.077 3.296.122 5.044.122 3.701 0 7.688-.205 11.862-.69 1.093 9.064 5.776 22.222 21.939 33.323 2.809 1.927 6.309 2.449 9.616 1.332 3.223-1.087 5.786-3.656 6.863-6.878 10.756 4.721 31.633 8.801 58.519-10.522 5.86-4.211 6.105-12.834.484-17.355l-4.522-3.638c8.138-5.889 20.025-17.186 31.124-37.808zm-203.274 152.82c9.375 0 17.003 7.628 17.003 17.004 0 9.375-7.628 17.003-17.003 17.003-9.3 0-16.986-7.554-17.002-16.974.001-.04.002-.078.002-.103.033-9.437 7.775-16.93 17-16.93zm73.51 83.015c-9.376 0-17.004-7.628-17.004-17.004s7.628-17.004 17.004-17.004 17.004 7.628 17.004 17.004-7.628 17.004-17.004 17.004zm-24.504-49.007c-9.376 0-17.004-7.628-17.004-17.003 0-9.376 7.628-17.004 17.004-17.004s17.004 7.628 17.004 17.004c0 9.375-7.628 17.003-17.004 17.003zm49.008 0c-9.376 0-17.004-7.628-17.004-17.003 0-9.376 7.628-17.004 17.004-17.004 9.375 0 17.003 7.628 17.003 17.004 0 9.375-7.628 17.003-17.003 17.003zm-73.512-83.015c9.376 0 17.004 7.628 17.004 17.004 0 9.375-7.628 17.003-17.004 17.003-9.375 0-17.003-7.628-17.003-17.003.001-9.376 7.628-17.004 17.003-17.004zm-108.595-163.15h43v23.25h-.02-.001-42.959-.001-.02v-23.25zm-13.074 168.951c8.365-6.901 14.437-15.782 17.739-25.587 10.519 4.275 22.698 4.459 33.671 0 3.302 9.805 9.373 18.686 17.738 25.587 9.35 7.714 15.73 18.075 18.389 29.675-10.618 3.318-18.814 12.11-21.446 22.841h-85.884v-10.561c0-16.286 7.213-31.578 19.793-41.955zm75.73 313.049h-82.312c-7.285 0-13.212-5.927-13.212-13.211v-36.346h36.867c4.143 0 7.5-3.358 7.5-7.5s-3.357-7.5-7.5-7.5h-36.867v-180.977h85.779c2.714 11.733 11.69 20.698 22.955 23.641v157.336h-36.867c-4.143 0-7.5 3.358-7.5 7.5s3.357 7.5 7.5 7.5h36.867v36.346c.001 7.284-5.926 13.211-13.21 13.211zm28.937-203.832c0-9.376 7.628-17.004 17.003-17.004 9.376 0 17.004 7.628 17.004 17.004s-7.628 17.004-17.004 17.004-17.003-7.628-17.003-17.004zm41.506 66.012c-9.376 0-17.004-7.628-17.004-17.004 0-9.375 7.628-17.003 17.004-17.003s17.004 7.628 17.004 17.003c0 9.376-7.628 17.004-17.004 17.004zm49.008 0c-9.376 0-17.004-7.628-17.004-17.004 0-9.375 7.628-17.003 17.004-17.003 9.375 0 17.003 7.628 17.003 17.003 0 9.376-7.628 17.004-17.003 17.004zm24.503-49.008c-9.375 0-17.003-7.628-17.003-17.004s7.628-17.004 17.003-17.004c9.376 0 17.004 7.628 17.004 17.004s-7.628 17.004-17.004 17.004zm41.508-66.011c0 9.375-7.628 17.003-17.004 17.003s-17.004-7.628-17.004-17.003c0-9.376 7.628-17.004 17.004-17.004s17.004 7.628 17.004 17.004zm-41.508-66.011c9.376 0 17.004 7.628 17.004 17.004 0 9.375-7.628 17.003-17.004 17.003-9.375 0-17.003-7.628-17.003-17.003 0-9.376 7.628-17.004 17.003-17.004zm-32.003 17.004c0 9.375-7.628 17.003-17.004 17.003s-17.004-7.628-17.004-17.003c0-9.376 7.628-17.004 17.004-17.004s17.004 7.628 17.004 17.004zm69.141-92.731c-6.567 3.849-7.229 13.109-1.298 17.88l4.573 3.678c-21.699 13.542-36.524 7.778-42.12 4.473-2.857-1.686-6.274-1.985-9.378-.819-2.779 1.045-4.975 3.141-6.146 5.83-8.315-7.184-10.841-14.684-11.257-20.479 7.004-1.962 14.244-4.873 21.41-9.115 3.564-2.109 4.744-6.709 2.634-10.274-2.109-3.564-6.707-4.743-10.274-2.634-5.754 3.406-11.612 5.774-17.318 7.399-2.395-3.957-10.921-10.651-8.256-27.728 5.826 2.855 12.922.001 15.081-6.225 2.128-6.139 9.706-20.125 35.012-23.835l-1.108 5.762c-1.439 7.49 5.073 14.106 12.556 12.796 7.144-1.25 22.615-1.984 45.958 7.164.361.141.527.594.343.933-11.884 22.077-24.155 31.527-30.412 35.194z" id="path4"/>
  </g>
</svg>
