<?xml version="1.0" encoding="UTF-8"?>
<!-- Generator: Adobe Illustrator 23.0.3, SVG Export Plug-In . SVG Version: 6.00 Build 0)  -->
<svg version="1.1" id="Ebene_1" xmlns="http://www.w3.org/2000/svg" xmlns:xlink="http://www.w3.org/1999/xlink" x="0px" y="0px" viewBox="0 0 595.3 334" style="enable-background:new 0 0 595.3 334;" xml:space="preserve">
<style type="text/css">
	.st0{fill:#003854;}
	.st1{fill:#133A58;}
	.st2{fill:#D3D800;}
</style>
<path class="st0" d="M44,225.1c-8.2-0.6-10.6-3.3-10.6-12.4v-170c0-9.1,2.4-11.8,10.6-12.7c12.1-1.2,26-1.8,42.3-1.8  c35.7,0,57.8,6.3,73.8,20.3C177.4,63.6,185,85.7,185,119v17.2c0,32.1-8.5,55.4-26.6,69.6c-18.5,14.5-39.6,19.7-79.9,19.7  C66.7,225.4,52.8,225.7,44,225.1z M76.7,59.4c-3.6,0.3-5.1,1.8-5.1,5.5v123.1c0,5.1,2.1,6.9,7.3,6.9h9.4c42.7,0,57.8-16.6,57.8-61.4  v-13.3c0-45.7-12.4-61.1-58.7-61.1C82.7,59.1,79.7,59.1,76.7,59.4z"/>
<path class="st0" d="M331.1,194.3c7,0,8.2,1.8,8.2,7.3v16.6c0,5.8-1.2,7.3-8.2,7.3H219.4c-7.3,0-10.3-1.8-10.3-9.1v-9.7  c0-3.6,2.1-6.7,5.1-11.5l82.3-134.3h-72.9c-7,0-8.2-1.8-8.2-7.3V37c0-5.7,1.2-7.3,8.2-7.3h110.7c6.4,0,9.1,1.8,9.1,7.6v9.1  c0,4.5-1.2,7-5.1,13.6l-83.5,134.3H331.1z"/>
<path class="st0" d="M436.3,219.4c-5.7-1.8-7.6-3.9-6.4-9.7l3.3-17.6c0.9-5.4,4.5-6.3,8.5-4.8c12.1,4.5,32.4,9.4,45.7,9.4  c13.9,0,23.3-1.5,29.3-6.6c4.8-4,6-10,6-19.4v-2.4c0-7.9-1.2-13-3.6-16c-3.6-4.6-10.3-7-20.6-9.4l-20.9-4.5  c-19.1-4.2-29-8.5-36.9-17.2c-7.3-7.9-11.5-20.9-11.5-36.9v-3.9c0-19.4,6-33,17.5-41.7c11.2-8.2,27.5-11.5,49.9-11.5  c18.5,0,38.1,3.6,48.7,7c5.1,1.5,6.3,3.3,5.1,8.8l-4.6,19.1c-0.9,4.2-3.9,5.4-9.4,3.6c-13.3-4.2-26.9-7-39-7  c-13,0-19.7,1.5-24.2,4.5c-4.2,3-7,8.5-7,18.1v2.4c0,7.6,1.2,11.8,4.8,15.4c3.9,3.9,10.9,6.3,20.3,8.2l22.1,4.5  c18.5,3.9,29.6,9.1,37.2,18.5c6.7,8.5,9.1,19.7,9.1,34.8v4.5c0,18.7-5.5,34.8-16.3,44.5c-11.5,10.3-29.7,14.2-55.4,14.2  C472.3,228.2,450.2,223.9,436.3,219.4z"/>
<g>
	<path class="st1" d="M34.9,302.3c-0.8,0-1.1-0.4-1.1-1.2v-28.6c0-0.4,0.1-0.7,0.2-0.9c0.1-0.2,0.4-0.3,0.9-0.4   c0.5,0,0.9-0.1,1.3-0.1c0.4,0,0.8-0.1,1.2-0.1c0.4,0,0.8,0,1.3,0c0.5,0,1.1,0,1.8,0c2.6,0,4.8,0.2,6.7,0.7c1.9,0.4,3.5,1.2,4.8,2.4   c1.2,1.1,2.1,2.5,2.7,4.3c0.6,1.8,0.9,4.1,0.9,7.1v2.4c0,2.5-0.3,4.7-0.8,6.5c-0.5,1.8-1.3,3.3-2.4,4.5c-1.1,1.2-2.5,2-4.3,2.6   c-1.7,0.6-3.9,0.8-6.3,0.8H34.9z M41.2,273.7c-0.6,0-1.3,0-2,0c-0.7,0-1.2,0-1.7,0.1c-0.4,0-0.6,0.3-0.6,0.7V299   c0,0.4,0.2,0.6,0.6,0.6h3.6c1,0,1.9,0,2.7-0.1c0.8-0.1,1.4-0.2,2-0.3c0.6-0.2,1.1-0.4,1.6-0.6c0.5-0.3,1-0.6,1.5-1   c1-0.9,1.8-2,2.3-3.6c0.5-1.5,0.7-3.7,0.7-6.5V286c0-2.5-0.2-4.5-0.6-5.9c-0.4-1.5-1-2.7-1.9-3.6c-0.9-1-2-1.7-3.4-2.1   C44.8,273.9,43.1,273.7,41.2,273.7z"/>
	<path class="st1" d="M65.7,273c0,0.8-0.2,1.4-0.6,1.7c-0.4,0.4-0.9,0.5-1.5,0.5h-0.2c-0.8,0-1.4-0.2-1.7-0.5   c-0.3-0.4-0.5-0.9-0.5-1.7v-0.3c0-0.8,0.2-1.4,0.6-1.7c0.4-0.3,0.9-0.5,1.6-0.5h0.2c0.6,0,1.1,0.2,1.5,0.5c0.4,0.3,0.6,0.9,0.6,1.7   V273z M65.1,301.9c0,0.3-0.1,0.4-0.4,0.4h-2.3c-0.3,0-0.4-0.1-0.4-0.4v-22.4c0-0.3,0.2-0.5,0.6-0.5h2c0.4,0,0.6,0.2,0.6,0.5V301.9z   "/>
	<path class="st1" d="M86.6,295.6c-0.4,0.4-0.8,0.7-1.2,1c2.7,1.7,4.1,4,4.1,6.7v0.5c0,1.3-0.2,2.5-0.7,3.4c-0.5,0.9-1.1,1.7-2,2.3   c-0.9,0.6-1.9,1-3,1.3c-1.2,0.3-2.5,0.4-3.9,0.4c-1.5,0-3-0.2-4.5-0.5c-1.5-0.4-2.9-0.8-4.1-1.4c-0.3-0.2-0.4-0.4-0.4-0.8l0.5-1.4   c0.1-0.2,0.2-0.3,0.3-0.4c0.2,0,0.3,0,0.5,0.1c2.4,1.2,4.9,1.8,7.3,1.8c2.3,0,3.9-0.3,5-1c1.1-0.7,1.6-2,1.6-3.9v-0.4   c0-1.3-0.3-2.4-0.9-3.3c-0.6-0.9-1.5-1.6-2.7-2.3c-0.4,0.1-0.9,0.2-1.3,0.2c-0.4,0-0.9,0-1.5,0c-2.7,0-4.8-0.6-6.3-1.8   c-1.7-1.4-2.5-3.7-2.5-6.9v-2c0-3.3,0.8-5.6,2.5-7c0.7-0.6,1.6-1,2.8-1.3c1.1-0.3,2.3-0.4,3.6-0.4c0.3,0,0.5,0,0.8,0   c0.3,0,0.5,0,0.8,0c0.3-1,0.9-1.8,1.8-2.5c0.8-0.6,2-1,3.5-1h1.1c0.4,0,0.7,0.2,0.7,0.7v1.6c0,0.2,0,0.3-0.1,0.4   c0,0.1-0.2,0.1-0.5,0.1h-1.4c-0.5,0-0.9,0.1-1.4,0.2s-0.8,0.5-1,1c0.4,0.2,0.7,0.3,1.1,0.5c0.3,0.2,0.7,0.4,1,0.6   c1.6,1.4,2.5,3.7,2.5,7v2c0,1.5-0.2,2.7-0.5,3.8C87.8,294,87.3,294.9,86.6,295.6z M74.2,288.8c0,1.5,0.2,2.8,0.5,3.8   c0.4,1.1,1,1.8,1.8,2.3c0.8,0.4,1.9,0.6,3.2,0.6c1.4,0,2.5-0.2,3.3-0.6c0.8-0.4,1.5-1.2,1.8-2.3c0.3-0.9,0.5-2.2,0.5-3.8v-1.2   c0-0.8,0-1.5-0.1-2.1c-0.1-0.6-0.2-1.2-0.4-1.6c-0.4-1.1-1-1.9-1.8-2.3c-0.8-0.4-1.9-0.6-3.3-0.6c-1.3,0-2.4,0.2-3.2,0.6   c-0.8,0.4-1.4,1.2-1.8,2.3c-0.3,1-0.5,2.2-0.5,3.7V288.8z"/>
	<path class="st1" d="M99.2,273c0,0.8-0.2,1.4-0.6,1.7c-0.4,0.4-0.9,0.5-1.5,0.5h-0.2c-0.8,0-1.4-0.2-1.7-0.5   c-0.3-0.4-0.5-0.9-0.5-1.7v-0.3c0-0.8,0.2-1.4,0.6-1.7c0.4-0.3,0.9-0.5,1.6-0.5h0.2c0.6,0,1.1,0.2,1.5,0.5c0.4,0.3,0.6,0.9,0.6,1.7   V273z M98.5,301.9c0,0.3-0.1,0.4-0.4,0.4h-2.3c-0.3,0-0.4-0.1-0.4-0.4v-22.4c0-0.3,0.2-0.5,0.6-0.5h2c0.4,0,0.6,0.2,0.6,0.5V301.9z   "/>
	<path class="st1" d="M113.4,302.3c-2.5,0-4.3-0.6-5.3-1.9c-1-1.2-1.6-3.1-1.6-5.5v-13.2h-2.9c-0.3,0-0.5-0.2-0.5-0.5v-1   c0-0.4,0.2-0.6,0.5-0.6l2.9-0.6v-5.4c0-0.4,0.2-0.6,0.6-0.6h2c0.3,0,0.5,0.2,0.5,0.6v5.4h5.6c0.3,0,0.5,0.2,0.5,0.5v1.8   c0,0.3-0.2,0.5-0.5,0.5h-5.6v12.9c0,0.9,0.1,1.6,0.2,2.3c0.1,0.7,0.3,1.2,0.7,1.6c0.6,0.8,1.8,1.2,3.5,1.2h1.7c0.2,0,0.3,0,0.4,0.1   c0.1,0,0.2,0.2,0.2,0.5v1.6c0,0.3-0.2,0.5-0.6,0.5H113.4z"/>
	<path class="st1" d="M133.7,300.2L133.7,300.2c-0.6,0.8-1.3,1.5-2.1,1.9c-0.8,0.4-1.8,0.6-3,0.6h-2.4c-1,0-2-0.2-2.9-0.5   c-0.9-0.3-1.7-0.7-2.2-1.3c-1.1-1.1-1.7-2.6-1.7-4.5v-1.4c0-1.5,0.3-2.7,1-3.7c0.6-1,1.6-1.8,2.8-2.3c0.5-0.2,1.2-0.4,2.1-0.5   c0.9-0.1,2.1-0.2,3.6-0.2h1.4c0.5,0,1.1,0,1.6,0c0.6,0,1.1,0.1,1.5,0.1v-2.7c0-1.8-0.5-3.1-1.5-3.7c-1-0.6-2.4-1-4.3-1   c-1.7,0-3.3,0.2-4.9,0.7c-0.3,0.1-0.6,0.1-0.8,0.1c-0.2,0-0.3-0.2-0.4-0.5l-0.2-1c-0.1-0.3-0.1-0.5,0-0.7c0-0.2,0.2-0.3,0.5-0.4   c0.8-0.3,1.7-0.5,2.9-0.6c1.1-0.2,2.2-0.3,3.2-0.3c3,0,5.2,0.5,6.6,1.6c1.3,1.1,2,2.9,2,5.4v16.3c0,0.3-0.2,0.5-0.5,0.5h-1.6   c-0.4,0-0.6-0.2-0.6-0.5L133.7,300.2z M133.4,291.2c-0.4-0.1-0.8-0.1-1.3-0.1c-0.5,0-1,0-1.5,0h-2.7c-1,0-1.9,0.1-2.5,0.2   c-0.7,0.1-1.2,0.4-1.6,0.7c-0.8,0.6-1.2,1.7-1.2,3.1v1c0,1.5,0.3,2.5,1,3.1c0.6,0.6,1.6,0.9,2.9,0.9h2c1.6,0,2.8-0.4,3.7-1.2   c0.9-0.8,1.3-2.1,1.3-3.7V291.2z"/>
	<path class="st1" d="M146.1,296.1c0,0.8,0,1.4,0,1.9c0,0.5,0.2,0.9,0.4,1.1c0.3,0.3,0.8,0.5,1.7,0.5h1.3c0.2,0,0.3,0,0.4,0.1   c0.1,0,0.2,0.2,0.2,0.5v1.6c0,0.4-0.2,0.6-0.5,0.6h-1.8c-1.7,0-2.9-0.4-3.7-1.1c-0.8-0.8-1.1-2.3-1.1-4.4v-26.2   c0-0.3,0.2-0.5,0.6-0.5h2c0.4,0,0.6,0.2,0.6,0.5V296.1z"/>
	<path class="st1" d="M170.9,290.6c0,0.7-0.1,1.1-0.4,1.4c-0.3,0.3-0.7,0.4-1.4,0.4h-12.3c0,1.4,0.2,2.6,0.4,3.6   c0.2,1,0.6,1.8,1.1,2.4c0.5,0.6,1.1,1,1.9,1.3c0.8,0.3,1.7,0.4,2.8,0.4c1.9,0,3.6-0.3,5.2-1c0.6-0.3,1-0.1,1.1,0.3l0.3,1.1   c0.1,0.3,0.1,0.5,0,0.6c-0.1,0.2-0.4,0.4-1,0.6c-1.6,0.6-3.5,0.9-5.7,0.9c-1.8,0-3.3-0.2-4.5-0.7c-1.2-0.4-2.2-1.1-2.9-2   c-0.7-0.9-1.3-2.1-1.6-3.5c-0.3-1.4-0.5-3.1-0.5-5v-1.9c0-3.7,0.7-6.5,2-8.4c1.3-1.8,3.6-2.8,7-2.8c2.7,0,4.8,0.7,6.1,2   c0.7,0.7,1.3,1.5,1.6,2.5c0.3,1,0.5,2.2,0.5,3.7V290.6z M162.7,281.2c-1,0-1.9,0.1-2.6,0.4c-0.7,0.3-1.3,0.7-1.8,1.4   c-0.5,0.7-0.8,1.5-1.1,2.6c-0.2,1.1-0.4,2.5-0.4,4.1h10.2c0.3,0,0.4,0,0.5-0.1c0.1-0.1,0.1-0.3,0.1-0.6v-1.8c0-1.1-0.1-2-0.2-2.7   c-0.2-0.6-0.4-1.2-0.9-1.7C165.8,281.7,164.5,281.2,162.7,281.2z"/>
	<path class="st1" d="M182.2,302.7c-1.2,0-2.4-0.1-3.6-0.3c-1.2-0.2-2.2-0.5-2.9-0.8c-0.4-0.2-0.6-0.5-0.6-0.8l0.4-1.4   c0.1-0.5,0.4-0.7,0.9-0.5c0.9,0.4,1.9,0.6,2.8,0.8c1,0.2,1.9,0.3,3,0.3c1.1,0,2-0.1,2.6-0.2c0.6-0.2,1.1-0.4,1.5-0.7   c0.8-0.6,1.2-1.6,1.2-3v-0.3c0-0.8-0.1-1.5-0.3-2c-0.2-0.5-0.5-0.9-1-1.2c-0.3-0.2-0.8-0.4-1.3-0.5c-0.5-0.1-1.2-0.3-2-0.5   l-1.3-0.2c-1.6-0.3-2.9-0.7-3.7-1.2c-0.9-0.5-1.5-1.2-1.9-2c-0.4-0.8-0.5-1.8-0.5-2.9v-0.5c0-2.1,0.6-3.7,1.9-4.7   c1.3-1,3.2-1.5,5.7-1.5c2,0,3.7,0.2,5.3,0.7c0.6,0.2,0.8,0.4,0.7,0.9l-0.3,1.2c-0.1,0.3-0.2,0.5-0.3,0.6c-0.2,0.1-0.4,0.1-0.8,0   c-0.7-0.2-1.5-0.4-2.3-0.5c-0.8-0.1-1.6-0.2-2.4-0.2c-1,0-1.8,0.1-2.4,0.3c-0.6,0.2-1,0.4-1.4,0.7c-0.3,0.3-0.5,0.6-0.7,1   c-0.2,0.4-0.3,0.9-0.3,1.5v0.3c0,0.5,0.1,1,0.2,1.3c0.1,0.4,0.3,0.7,0.6,1c0.3,0.3,0.7,0.6,1.3,0.8c0.5,0.2,1.3,0.4,2.5,0.6   l1.2,0.2c1.2,0.3,2.2,0.5,3.1,0.9c0.9,0.3,1.6,0.8,2.1,1.4c0.3,0.5,0.6,1.1,0.9,1.8c0.2,0.7,0.3,1.5,0.3,2.4v0.5   c0,0.8-0.1,1.6-0.3,2.4c-0.2,0.8-0.6,1.5-1,2C187.7,301.9,185.5,302.7,182.2,302.7z"/>
	<path class="st1" d="M205.2,300.9c0-0.4,0.1-0.8,0.2-1c0.1-0.3,0.4-0.7,0.7-1.3l14.6-24.4h-14.1c-0.4,0-0.6-0.2-0.6-0.7v-1.4   c0-0.4,0.2-0.6,0.6-0.6h17.2c0.5,0,0.8,0.3,0.8,0.8v0.7c0,0.3,0,0.5-0.1,0.7c0,0.2-0.1,0.5-0.2,0.7c-0.1,0.2-0.2,0.5-0.4,0.8   c-0.2,0.3-0.4,0.7-0.6,1.1l-14,23.4h14.5c0.4,0,0.6,0.2,0.6,0.6v1.4c0,0.4-0.2,0.6-0.6,0.6h-17.7c-0.6,0-0.9-0.3-0.9-0.9V300.9z"/>
	<path class="st1" d="M245.8,290.6c0,0.7-0.1,1.1-0.4,1.4c-0.3,0.3-0.7,0.4-1.4,0.4h-12.3c0,1.4,0.2,2.6,0.4,3.6   c0.2,1,0.6,1.8,1.1,2.4c0.5,0.6,1.1,1,1.9,1.3c0.8,0.3,1.7,0.4,2.8,0.4c1.9,0,3.6-0.3,5.2-1c0.6-0.3,1-0.1,1.1,0.3l0.3,1.1   c0.1,0.3,0.1,0.5,0,0.6c-0.1,0.2-0.4,0.4-1,0.6c-1.6,0.6-3.5,0.9-5.7,0.9c-1.8,0-3.3-0.2-4.5-0.7c-1.2-0.4-2.2-1.1-2.9-2   c-0.7-0.9-1.3-2.1-1.6-3.5c-0.3-1.4-0.5-3.1-0.5-5v-1.9c0-3.7,0.7-6.5,2-8.4c1.3-1.8,3.6-2.8,7-2.8c2.7,0,4.8,0.7,6.1,2   c0.7,0.7,1.3,1.5,1.6,2.5c0.3,1,0.5,2.2,0.5,3.7V290.6z M237.7,281.2c-1,0-1.9,0.1-2.6,0.4c-0.7,0.3-1.3,0.7-1.8,1.4   c-0.5,0.7-0.8,1.5-1.1,2.6c-0.2,1.1-0.4,2.5-0.4,4.1H242c0.3,0,0.4,0,0.5-0.1c0.1-0.1,0.1-0.3,0.1-0.6v-1.8c0-1.1-0.1-2-0.2-2.7   c-0.2-0.6-0.4-1.2-0.9-1.7C240.8,281.7,239.5,281.2,237.7,281.2z"/>
	<path class="st1" d="M268.9,302.2c-0.2,0.1-0.4,0.1-0.6,0.1h-1.3c-0.4,0-0.6,0-0.7-0.1c-0.1-0.1-0.1-0.3-0.1-0.7v-13.9   c0-1.5-0.2-2.6-0.5-3.5c-0.3-0.9-0.9-1.6-1.7-2.1c-1-0.6-2.2-0.9-3.9-0.9c-2.2,0-3.8,0.7-4.7,2c-0.3,0.4-0.5,0.9-0.6,1.5   c-0.1,0.5-0.2,1.3-0.2,2.2v14.8c0,0.5-0.3,0.7-0.9,0.7h-1.5c-0.5,0-0.8-0.2-0.8-0.7v-22.1c0-0.3,0.2-0.5,0.5-0.5h1.4   c0.3,0,0.5,0.2,0.6,0.5l0.2,1.9h0.1c0.2-0.3,0.5-0.7,0.8-1c0.3-0.3,0.7-0.6,1.1-0.8c0.6-0.3,1.3-0.6,2.1-0.8   c0.8-0.2,1.6-0.3,2.4-0.3c1.8,0,3.3,0.3,4.6,0.8c1.2,0.5,2.2,1.3,2.8,2.4c0.4,0.7,0.7,1.6,0.9,2.6c0.2,1,0.2,2.2,0.2,3.5v13.6   C269.2,301.8,269.1,302.1,268.9,302.2z"/>
	<path class="st1" d="M283.2,302.3c-2.5,0-4.3-0.6-5.3-1.9c-1-1.2-1.6-3.1-1.6-5.5v-13.2h-2.9c-0.3,0-0.5-0.2-0.5-0.5v-1   c0-0.4,0.2-0.6,0.5-0.6l2.9-0.6v-5.4c0-0.4,0.2-0.6,0.6-0.6h2c0.3,0,0.5,0.2,0.5,0.6v5.4h5.6c0.3,0,0.5,0.2,0.5,0.5v1.8   c0,0.3-0.2,0.5-0.5,0.5h-5.6v12.9c0,0.9,0.1,1.6,0.2,2.3c0.1,0.7,0.3,1.2,0.7,1.6c0.6,0.8,1.8,1.2,3.5,1.2h1.7c0.2,0,0.3,0,0.4,0.1   c0.1,0,0.2,0.2,0.2,0.5v1.6c0,0.3-0.2,0.5-0.6,0.5H283.2z"/>
	<path class="st1" d="M291.3,302.3c-0.5,0-0.8-0.2-0.8-0.6v-22.2c0-0.3,0.2-0.5,0.6-0.5h1.4c0.2,0,0.4,0,0.4,0.1   c0.1,0.1,0.1,0.2,0.1,0.4l0.2,2.5h0.1c0.4-0.8,1.1-1.5,2-2.1c0.9-0.6,2.1-0.9,3.5-0.9h1.2c0.4,0,0.6,0.2,0.6,0.6v1.6   c0,0.3-0.2,0.5-0.6,0.5h-1.3c-1.2,0-2.1,0.2-2.8,0.5c-0.7,0.3-1.2,0.8-1.5,1.5c-0.3,0.5-0.5,1.1-0.7,1.7c-0.1,0.6-0.2,1.3-0.2,2   v14.3c0,0.4-0.3,0.6-0.8,0.6H291.3z"/>
	<path class="st1" d="M321.4,279c0.3,0,0.5,0.2,0.5,0.6v16c0,2.4-0.7,4.2-2.1,5.4c-0.7,0.6-1.5,1-2.5,1.3c-1,0.3-2.3,0.4-4,0.4   c-1.6,0-2.9-0.1-3.9-0.4c-1-0.3-1.9-0.7-2.6-1.3c-1.4-1.2-2.1-3-2.1-5.4v-15.8c0-0.5,0.2-0.8,0.7-0.8h1.8c0.3,0,0.4,0.1,0.5,0.2   c0.1,0.1,0.1,0.3,0.1,0.5v15.6c0,1,0.1,1.7,0.3,2.3c0.2,0.6,0.5,1,1,1.5c0.5,0.4,1.1,0.7,1.7,0.9c0.7,0.2,1.5,0.2,2.5,0.2   c1.1,0,2-0.1,2.6-0.3c0.7-0.2,1.3-0.5,1.8-1c0.4-0.4,0.7-0.8,0.9-1.3c0.2-0.5,0.2-1.2,0.2-2.2v-15.6c0-0.4,0.2-0.6,0.6-0.6H321.4z"/>
	<path class="st1" d="M328.2,279.5c0-0.3,0.2-0.5,0.5-0.5h1.4c0.3,0,0.5,0.2,0.6,0.5l0.2,1.9h0.1c0.2-0.3,0.5-0.7,0.8-1   c0.3-0.3,0.7-0.6,1.1-0.8c0.6-0.3,1.3-0.6,2.1-0.8c0.7-0.2,1.5-0.3,2.4-0.3c1.8,0,3.3,0.3,4.4,0.8c1.1,0.5,2,1.4,2.7,2.5h0.1   c0.8-1,1.8-1.8,3-2.4c1.2-0.6,2.7-0.9,4.3-0.9c1.5,0,2.8,0.2,3.8,0.6c1,0.4,1.8,0.9,2.5,1.7c0.7,0.8,1.2,1.8,1.5,3   c0.3,1.2,0.4,2.6,0.4,4.1v13.7c0,0.3-0.1,0.5-0.2,0.6c-0.1,0.1-0.3,0.1-0.6,0.1h-1.6c-0.3,0-0.4,0-0.5-0.1   c-0.1-0.1-0.2-0.3-0.2-0.6v-13.9c0-1.2-0.1-2.1-0.3-2.9c-0.2-0.7-0.5-1.4-0.9-1.9c-0.9-1.1-2.4-1.7-4.4-1.7c-2.6,0-4.6,1-6,2.9   c0.1,0.6,0.2,1.2,0.2,1.8c0,0.6,0.1,1.2,0.1,2v13.7c0,0.5-0.2,0.7-0.7,0.7h-1.6c-0.5,0-0.8-0.2-0.8-0.7v-13.9c0-1.3-0.1-2.3-0.3-3   c-0.2-0.8-0.6-1.4-1.1-2c-1-1-2.4-1.5-4.5-1.5c-2.2,0-3.7,0.7-4.6,2c-0.3,0.4-0.5,0.9-0.6,1.5c-0.1,0.5-0.2,1.3-0.2,2.2v14.7   c0,0.2,0,0.4-0.1,0.5c-0.1,0.1-0.3,0.2-0.6,0.2h-1.7c-0.3,0-0.5-0.1-0.6-0.2c-0.1-0.1-0.1-0.3-0.1-0.5V279.5z"/>
	<path class="st1" d="M384.7,302.7c-1.6,0-3-0.1-4.3-0.4c-1.3-0.2-2.5-0.6-3.6-1c-0.4-0.2-0.6-0.4-0.5-0.8l0.4-1.6   c0.1-0.5,0.4-0.6,1-0.4c0.9,0.4,1.9,0.7,3.1,1c1.2,0.3,2.5,0.5,3.8,0.5c2.3,0,4-0.5,5.1-1.5c1.1-1,1.6-2.4,1.6-4.3v-0.5   c0-0.9-0.1-1.6-0.2-2.2c-0.2-0.6-0.4-1.1-0.8-1.5c-0.4-0.4-0.9-0.8-1.5-1.1c-0.7-0.3-1.5-0.6-2.5-0.8l-3.2-0.8   c-2.3-0.5-4-1.4-5.1-2.6c-1.1-1.2-1.7-2.9-1.7-5.1v-0.7c0-2.6,0.8-4.5,2.5-5.9c1.6-1.3,3.9-2,6.7-2c1.4,0,2.6,0.1,3.7,0.2   c1.1,0.2,2.1,0.4,3.1,0.7c0.3,0.1,0.6,0.2,0.6,0.4c0.1,0.2,0.1,0.4,0,0.7l-0.3,1.1c-0.1,0.5-0.5,0.6-1.1,0.4c-1-0.3-2-0.5-2.9-0.7   c-0.9-0.1-1.9-0.2-3-0.2c-3.9,0-5.9,1.7-5.9,5.2v0.5c0,0.9,0.1,1.6,0.3,2.1c0.2,0.6,0.5,1,1,1.4c0.4,0.4,1,0.7,1.6,0.9   c0.6,0.2,1.3,0.5,2.1,0.6l3,0.7c1.3,0.3,2.4,0.7,3.3,1.1c0.9,0.4,1.6,1,2.2,1.6c0.6,0.6,1,1.4,1.2,2.2c0.2,0.9,0.4,1.9,0.4,3v0.8   c0,3-0.9,5.1-2.6,6.6C390.4,302,387.9,302.7,384.7,302.7z"/>
	<path class="st1" d="M414.2,300.6c0.1,0.3,0.1,0.5,0,0.7c-0.1,0.1-0.4,0.3-0.8,0.5c-0.6,0.3-1.5,0.5-2.5,0.7c-1,0.2-2,0.3-2.9,0.3   c-2.9,0-5.1-0.7-6.6-2c-1.1-1-1.8-2.3-2.2-3.9c-0.4-1.6-0.6-3.4-0.6-5.6v-1.6c0-2.2,0.2-4,0.7-5.5c0.5-1.4,1.2-2.6,2.2-3.5   c0.7-0.6,1.6-1.1,2.7-1.5c1.1-0.4,2.3-0.6,3.8-0.6c1.3,0,2.6,0.2,3.9,0.6c1.2,0.4,2.2,0.9,3,1.5c0.3,0.2,0.3,0.4,0,0.8l-0.8,1.3   c-0.2,0.3-0.4,0.3-0.8,0.1c-1.8-1.1-3.5-1.6-5.2-1.6c-1.8,0-3.3,0.5-4.3,1.5c-0.4,0.4-0.8,1-1,1.5c-0.3,0.6-0.4,1.2-0.6,1.9   c-0.1,0.7-0.2,1.3-0.2,2c0,0.7,0,1.4,0,2v0.8c0,1.8,0.1,3.3,0.3,4.5c0.2,1.2,0.6,2.1,1.2,2.8c0.5,0.6,1.2,1.1,2,1.4   c0.8,0.3,1.8,0.4,2.8,0.4c0.8,0,1.6-0.1,2.4-0.2c0.8-0.2,1.5-0.4,2.2-0.7c0.6-0.3,1-0.1,1.1,0.3L414.2,300.6z"/>
	<path class="st1" d="M422.4,281c0.3-0.3,0.5-0.6,0.7-0.8c0.2-0.2,0.5-0.4,1-0.7c0.6-0.3,1.3-0.6,2.1-0.8c0.8-0.2,1.6-0.3,2.4-0.3   c1.8,0,3.3,0.3,4.6,0.8c1.2,0.5,2.2,1.3,2.8,2.4c0.4,0.7,0.7,1.6,0.9,2.6c0.2,1,0.2,2.2,0.2,3.5v13.8c0,0.3-0.1,0.5-0.2,0.5   c-0.1,0.1-0.4,0.1-0.6,0.1h-1.4c-0.6,0-0.9-0.2-0.9-0.7v-13.9c0-1.5-0.2-2.6-0.5-3.5c-0.3-0.9-0.9-1.6-1.7-2.1   c-1-0.6-2.2-0.9-3.9-0.9c-2.2,0-3.8,0.7-4.7,2c-0.3,0.4-0.5,0.9-0.6,1.5c-0.1,0.5-0.2,1.3-0.2,2.2v14.7c0,0.3-0.1,0.4-0.2,0.5   c-0.1,0.1-0.3,0.2-0.7,0.2h-1.5c-0.5,0-0.8-0.2-0.8-0.7v-31c0-0.3,0.2-0.5,0.6-0.5h2c0.4,0,0.6,0.2,0.6,0.5V281z"/>
	<path class="st1" d="M457.1,280.1c0.9,0,1.4,0.4,1.6,1.3c0.7,3.3,1.3,6.4,2,9.4c0.7,3,1.5,6,2.3,9h0.2c0.9-3.5,1.7-6.9,2.5-10.3   c0.7-3.4,1.4-6.7,2-10c0.1-0.3,0.2-0.5,0.3-0.5c0.1,0,0.3,0,0.6,0h1.5c0.3,0,0.6,0,0.7,0.1c0.1,0.1,0.2,0.3,0.1,0.5   c-0.7,3.6-1.5,7.1-2.3,10.6c-0.8,3.4-1.7,6.8-2.5,10.1c-0.2,0.6-0.4,1.1-0.7,1.5c-0.3,0.3-0.7,0.5-1.3,0.5h-1.6   c-0.6,0-1-0.1-1.4-0.4c-0.3-0.3-0.6-0.8-0.8-1.5c-0.8-3-1.5-5.9-2.2-8.8c-0.7-2.9-1.3-5.7-1.9-8.6h-0.3c-0.6,2.9-1.2,5.8-1.9,8.6   c-0.7,2.9-1.4,5.8-2.2,8.8c-0.2,0.8-0.5,1.3-0.8,1.5c-0.3,0.3-0.8,0.4-1.4,0.4H448c-0.6,0-1-0.2-1.3-0.5c-0.3-0.3-0.5-0.8-0.7-1.5   c-0.9-3.3-1.7-6.7-2.5-10.1c-0.8-3.4-1.6-7-2.3-10.6c-0.1-0.3,0-0.5,0.1-0.5c0.1-0.1,0.4-0.1,0.7-0.1h1.5c0.3,0,0.5,0,0.6,0.1   c0.1,0.1,0.2,0.2,0.3,0.5c0.6,3.3,1.2,6.6,2,10c0.7,3.4,1.6,6.8,2.5,10.3h0.2c0.8-3,1.6-6,2.3-9c0.7-3,1.4-6.2,2-9.4   c0.2-0.9,0.7-1.3,1.6-1.3H457.1z"/>
	<path class="st1" d="M487.9,300.2L487.9,300.2c-0.6,0.8-1.3,1.5-2.1,1.9c-0.8,0.4-1.8,0.6-3,0.6h-2.4c-1,0-2-0.2-2.9-0.5   c-0.9-0.3-1.7-0.7-2.2-1.3c-1.1-1.1-1.7-2.6-1.7-4.5v-1.4c0-1.5,0.3-2.7,1-3.7c0.6-1,1.6-1.8,2.8-2.3c0.5-0.2,1.2-0.4,2.1-0.5   c0.9-0.1,2.1-0.2,3.6-0.2h1.4c0.5,0,1.1,0,1.6,0c0.6,0,1.1,0.1,1.5,0.1v-2.7c0-1.8-0.5-3.1-1.5-3.7c-1-0.6-2.4-1-4.3-1   c-1.6,0-3.3,0.2-4.9,0.7c-0.3,0.1-0.6,0.1-0.8,0.1c-0.2,0-0.3-0.2-0.4-0.5l-0.2-1c-0.1-0.3-0.1-0.5,0-0.7c0-0.2,0.2-0.3,0.5-0.4   c0.8-0.3,1.7-0.5,2.9-0.6c1.1-0.2,2.2-0.3,3.2-0.3c3,0,5.2,0.5,6.6,1.6c1.3,1.1,2,2.9,2,5.4v16.3c0,0.3-0.2,0.5-0.5,0.5h-1.6   c-0.4,0-0.6-0.2-0.6-0.5L487.9,300.2z M487.6,291.2c-0.4-0.1-0.8-0.1-1.3-0.1c-0.5,0-1,0-1.5,0h-2.7c-1,0-1.9,0.1-2.5,0.2   c-0.7,0.1-1.2,0.4-1.6,0.7c-0.8,0.6-1.2,1.7-1.2,3.1v1c0,1.5,0.3,2.5,1,3.1c0.6,0.6,1.6,0.9,2.9,0.9h2c1.6,0,2.8-0.4,3.7-1.2   c0.9-0.8,1.3-2.1,1.3-3.7V291.2z"/>
	<path class="st1" d="M499.9,280.8L499.9,280.8c0.6-0.7,1.4-1.3,2.5-1.7c1-0.4,2.2-0.6,3.6-0.6c3.2,0,5.5,0.9,7,2.7   c1.5,1.8,2.2,4.6,2.2,8.4v2.2c0,2.1-0.2,3.8-0.6,5.2c-0.4,1.4-1,2.5-1.9,3.4c-0.8,0.9-1.8,1.5-3,1.8s-2.5,0.5-4,0.5   c-1.7,0-3.2-0.2-4.4-0.6c-1.2-0.4-2.1-1-2.8-1.8c-0.6-0.7-1-1.6-1.3-2.5c-0.3-0.9-0.4-2-0.4-3.4v-23.8c0-0.3,0.2-0.5,0.6-0.5h2   c0.4,0,0.6,0.2,0.6,0.5V280.8z M505.8,300.1c1.1,0,2.1-0.1,3-0.4c0.8-0.3,1.5-0.8,2-1.4c0.5-0.7,0.8-1.5,1-2.6   c0.2-1,0.3-2.5,0.3-4.2v-1.6c0-1.8-0.2-3.3-0.5-4.4c-0.3-1.1-0.8-2-1.4-2.7c-0.5-0.5-1.2-0.9-1.9-1.1c-0.7-0.2-1.6-0.3-2.7-0.3   c-1.1,0-2,0.1-2.7,0.4c-0.7,0.3-1.3,0.6-1.7,1c-0.3,0.3-0.5,0.5-0.6,0.8c-0.2,0.3-0.3,0.6-0.4,1s-0.2,0.8-0.2,1.3   c0,0.5,0,1.1,0,1.7v6.5c0,1,0.1,1.9,0.2,2.5c0.2,0.6,0.4,1.2,0.8,1.7c0.5,0.7,1.1,1.1,2,1.4C503.7,299.9,504.7,300.1,505.8,300.1z"/>
	<path class="st1" d="M536.7,290.6c0,0.7-0.1,1.1-0.4,1.4c-0.3,0.3-0.7,0.4-1.4,0.4h-12.3c0,1.4,0.2,2.6,0.4,3.6   c0.2,1,0.6,1.8,1.1,2.4c0.5,0.6,1.1,1,1.9,1.3c0.8,0.3,1.7,0.4,2.8,0.4c1.9,0,3.6-0.3,5.2-1c0.6-0.3,1-0.1,1.1,0.3l0.3,1.1   c0.1,0.3,0.1,0.5,0,0.6c-0.1,0.2-0.4,0.4-1,0.6c-1.6,0.6-3.5,0.9-5.7,0.9c-1.8,0-3.3-0.2-4.5-0.7s-2.2-1.1-2.9-2   c-0.7-0.9-1.3-2.1-1.6-3.5c-0.3-1.4-0.5-3.1-0.5-5v-1.9c0-3.7,0.7-6.5,2-8.4c1.3-1.8,3.6-2.8,7-2.8c2.7,0,4.8,0.7,6.1,2   c0.7,0.7,1.3,1.5,1.6,2.5c0.3,1,0.5,2.2,0.5,3.7V290.6z M528.5,281.2c-1,0-1.9,0.1-2.6,0.4c-0.7,0.3-1.3,0.7-1.8,1.4   c-0.5,0.7-0.8,1.5-1.1,2.6c-0.2,1.1-0.4,2.5-0.4,4.1h10.2c0.3,0,0.4,0,0.5-0.1c0.1-0.1,0.1-0.3,0.1-0.6v-1.8c0-1.1-0.1-2-0.2-2.7   c-0.2-0.6-0.4-1.2-0.9-1.7C531.6,281.7,530.3,281.2,528.5,281.2z"/>
	<path class="st1" d="M559.8,302.2c-0.2,0.1-0.4,0.1-0.6,0.1h-1.3c-0.4,0-0.6,0-0.7-0.1c-0.1-0.1-0.1-0.3-0.1-0.7v-13.9   c0-1.5-0.2-2.6-0.5-3.5c-0.3-0.9-0.9-1.6-1.7-2.1c-1-0.6-2.2-0.9-3.9-0.9c-2.2,0-3.8,0.7-4.7,2c-0.3,0.4-0.5,0.9-0.6,1.5   c-0.1,0.5-0.2,1.3-0.2,2.2v14.8c0,0.5-0.3,0.7-0.9,0.7H543c-0.5,0-0.8-0.2-0.8-0.7v-22.1c0-0.3,0.2-0.5,0.5-0.5h1.4   c0.3,0,0.5,0.2,0.6,0.5l0.2,1.9h0.1c0.2-0.3,0.5-0.7,0.8-1c0.3-0.3,0.7-0.6,1.1-0.8c0.6-0.3,1.3-0.6,2.1-0.8   c0.8-0.2,1.6-0.3,2.4-0.3c1.8,0,3.3,0.3,4.6,0.8c1.2,0.5,2.2,1.3,2.8,2.4c0.4,0.7,0.7,1.6,0.9,2.6c0.2,1,0.2,2.2,0.2,3.5v13.6   C560,301.8,559.9,302.1,559.8,302.2z"/>
</g>
<polygon class="st2" points="397.3,182.6 408.4,196.7 397.3,227.2 370.1,220 363.5,199.9 "/>
</svg>