<svg clip-rule="evenodd" fill-rule="evenodd" stroke-linejoin="round" stroke-miterlimit="1.41421" viewBox="0 0 114 26" xmlns="http://www.w3.org/2000/svg" xmlns:xlink="http://www.w3.org/1999/xlink"><clipPath id="a"><path clip-rule="evenodd" d="m0 0h114v25.34h-114z"/></clipPath><path d="m0 0h114v25.34h-114z" fill="none"/><g clip-path="url(#a)" fill="#00aeef" fill-rule="nonzero"><path d="m15.829 25.61c-.768.128-2.4.256-3.744.256-3.168 0-5.055-1.088-5.055-4.8v-16.126c0-.352.288-.577.639-.641l2.976-.511h.097c.287 0 .544.32.544.639v3.136h4.511c.352 0 .64.288.64.64v1.888c0 .352-.288.64-.64.64h-4.511v10.335c0 1.28.575 1.504 1.951 1.504h2.528c.416 0 .672.16.672.48v1.984c0 .32-.192.513-.608.576z" transform="matrix(1.14775 0 0 1.14775 -8.06866 -4.34767)"/><path d="m26.677 10.892c-1.056 0-2.368.064-3.136.224v13.823c0 .352-.256.672-.608.672h-2.976c-.352 0-.639-.32-.639-.672v-15.711c0-.416.287-.768.863-.96 2.048-.672 3.744-.928 6.496-.928.384 0 .928.064.928.544v2.432c0 .352-.192.576-.928.576z" transform="matrix(1.14775 0 0 1.14775 -8.06866 -4.34767)"/><path d="m40.981 14.923c0-2.496-1.376-3.936-3.36-3.936s-3.424 1.408-3.424 3.936v.128h6.784zm3.616 3.135h-10.431v.096c0 1.856.767 4.064 3.839 4.064 2.336 0 4.544-.191 5.888-.32h.096c.32 0 .575.16.575.481v2.111c0 .512-.095.736-.671.832-2.08.385-3.328.544-6.208.544-3.2 0-7.743-1.728-7.743-8.031v-2.368c0-4.992 2.784-8.127 7.679-8.127 4.928 0 7.615 3.359 7.615 8.127v1.791c0 .513-.192.8-.639.8z" transform="matrix(1.14775 0 0 1.14775 -8.06866 -4.34767)"/><path d="m54.709 25.866c-1.248 0-3.936-.159-5.728-.64-.384-.095-.607-.351-.607-.736v-1.92c0-.256.223-.512.543-.512h.128c1.536.192 4.416.352 5.376.352 1.984 0 2.272-.672 2.272-1.535 0-.609-.384-.992-1.408-1.633l-4.384-2.688c-1.567-.959-2.688-2.559-2.688-4.415 0-3.2 2.016-4.799 6.08-4.799 2.592 0 4.063.287 5.695.639.385.096.576.352.576.736v1.856c0 .384-.191.608-.512.608h-.128c-.896-.128-3.455-.384-5.279-.384-1.536 0-2.208.352-2.208 1.344 0 .512.48.832 1.28 1.312l4.192 2.561c2.687 1.63 3.071 3.23 3.071 4.863 0 2.783-2.08 4.991-6.271 4.991z" transform="matrix(1.14775 0 0 1.14775 -8.06866 -4.34767)"/><path d="m86.835 25.61h-3.008c-.351 0-.607-.319-.607-.672v-11.487c0-2.176-.768-2.592-2.24-2.592h-.768c-1.856 0-2.112 1.024-2.112 2.592v11.487c0 .353-.256.672-.609.672h-3.039c-.351 0-.607-.319-.607-.672v-11.487c0-1.568-.257-2.592-2.113-2.592h-.768c-1.472 0-2.239.416-2.239 2.592v11.487c0 .353-.257.672-.609.672h-3.008c-.351 0-.607-.319-.607-.672v-11.487c0-4.032 2.399-6.112 6.463-6.112h.768c1.792 0 3.232.417 4.224 1.28.992-.863 2.464-1.28 4.256-1.28h.768c4.064 0 6.462 2.08 6.462 6.112v11.487c0 .353-.255.672-.607.672z" transform="matrix(1.14775 0 0 1.14775 -8.06866 -4.34767)"/><path d="m102.132 15.307c0-2.624-1.184-4.32-3.424-4.32s-3.424 1.696-3.424 4.32v2.591c0 2.625 1.184 4.321 3.424 4.321s3.424-1.696 3.424-4.321zm-3.424 10.559c-5.023 0-7.647-3.392-7.647-7.968v-2.591c0-4.576 2.624-7.967 7.647-7.967 5.024 0 7.647 3.391 7.647 7.967v2.591c0 4.576-2.623 7.968-7.647 7.968z" transform="matrix(1.14775 0 0 1.14775 -8.06866 -4.34767)"/></g></svg>