<svg version="1.1" id="Ebene_1" xmlns="http://www.w3.org/2000/svg" x="0" y="0" viewBox="-177.5 354.4 85 85.1" xml:space="preserve"><style>.st0{fill:#46e1c8}</style><path class="st0" d="M-133 407.8c-2.2 1.6-4.5 3.2-6.7 4.9l-14.9-25.7 13.7-7.9c3.8-2.2 7.1-2.7 9.7-1.6 3.2 1.4 4.9 5.2 3.9 8.5-.4 1.4-1.3 3-6.2 5.9-2.2 1.3-6 3.5-6 3.5l-.5.4 7 12z"/><path class="st0" d="M-96.2 379.5c-4.7-10.3-13.1-18.3-23.7-22.3s-22.2-3.7-32.5 1c-10.4 4.7-18.3 13.1-22.3 23.7s-3.7 22.2 1 32.5 13.1 18.3 23.7 22.3c4.9 1.9 10 2.8 15.1 2.8 5.9 0 11.9-1.3 17.4-3.8 21.4-9.6 30.9-34.9 21.3-56.2zm-23.1 26.3c-1.3-.2-2.5.1-3.7.8-.6.4-1.6 1.1-3.2 2.3l-4.4 3.2c-3.4 2.5-10.2 7.4-10.2 7.4l-.6.5-20.1-34.8.6-.4s13.2-7.6 15-8.7c.3-.2.7-.4 1-.6l.1-.1c1.1-.7 2.3-1.4 3.5-1.9 2.1-1 4.9-2 7.8-1.9 2.7.2 5.2 1.2 7.3 2.9 4.2 3.6 5.4 10 2.7 15-1.4 2.6-3.7 4.2-5.7 5.5-1.3.8-2.6 1.5-3.9 2.3l4.2 7.3.1-.1c1.1-.8 2.4-1.8 3.8-2.6 3.8-2.2 8.8-1.6 12 1.5 3.3 3.3 3.8 8.7 1 12.4-1.9 2.5-4.9 4-8.1 4-1.5 0-3.1-.3-4.5-1-1.7-.8-3-2-4.3-4l-.2-.3 4.4-2.5.1.3c.7 1.3 2 2.2 3.6 2.4 1.3.2 2.6 0 3.7-.7s1.8-1.7 2-2.9c.5-2.3-1.3-4.8-4-5.3z"/></svg>