<?xml version="1.0" encoding="utf-8"?>
<!-- Generator: Adobe Illustrator 16.0.3, SVG Export Plug-In . SVG Version: 6.00 Build 0)  -->
<!DOCTYPE svg PUBLIC "-//W3C//DTD SVG 1.0//EN" "http://www.w3.org/TR/2001/REC-SVG-20010904/DTD/svg10.dtd">
<svg version="1.0" id="Ebene_1" xmlns="http://www.w3.org/2000/svg" xmlns:xlink="http://www.w3.org/1999/xlink" x="0px" y="0px"
	 width="736.815px" height="100.573px" viewBox="0 0 736.815 100.573" enable-background="new 0 0 736.815 100.573"
	 xml:space="preserve">
<g>
	<g>
		<path fill="#F49600" d="M28.032,0.163c-1.629,0.497-2.679,1.992-2.679,3.611c0,0.362,0.054,0.733,0.164,1.099
			c0,0,15.17,49.841,17.695,58.134C36.253,63.007,18.941,63,18.941,63c-2.084,0-3.774,1.688-3.774,3.773
			c0,2.085,1.688,3.773,3.771,3.773l29.364,0.005c1.198,0,2.321-0.565,3.034-1.521c0.71-0.967,0.925-2.204,0.574-3.35L32.738,2.674
			C32.131,0.681,30.022-0.441,28.032,0.163z"/>
	</g>
	<path fill="#F49600" d="M0,24.581c0,2.726,2.219,4.944,4.943,4.944c2.729,0,4.95-2.218,4.95-4.944c0-2.729-2.221-4.947-4.95-4.947
		C2.22,19.634,0,21.853,0,24.581z"/>
	<g>
		<path fill="#F49600" d="M96.971,0.163c1.623,0.497,2.668,1.992,2.668,3.611c0,0.362-0.046,0.733-0.161,1.099
			c0,0-15.168,49.841-17.691,58.134c6.959,0,24.273-0.007,24.273-0.007c2.084,0,3.773,1.688,3.773,3.773
			c0,2.085-1.689,3.773-3.773,3.773l-29.362,0.005c-1.199,0-2.324-0.565-3.037-1.521c-0.709-0.967-0.928-2.204-0.58-3.35
			L92.257,2.674C92.867,0.681,94.973-0.441,96.971,0.163z"/>
	</g>
	<path fill="#F49600" d="M56.467,24.476c0,2.665,2.167,4.834,4.835,4.834c2.664,0,4.837-2.169,4.837-4.834
		c0-2.667-2.173-4.836-4.837-4.836C58.634,19.64,56.467,21.809,56.467,24.476z"/>
	<g>
		<path fill="#F49600" d="M154.722,0.163c1.63,0.497,2.677,1.992,2.677,3.611c0,0.362-0.057,0.733-0.167,1.099
			c0,0-15.169,49.841-17.69,58.134c6.955,0,24.266-0.007,24.266-0.007c2.088,0,3.778,1.688,3.778,3.773
			c0,2.085-1.69,3.773-3.771,3.773l-29.367,0.005c-1.194,0-2.32-0.565-3.025-1.521c-0.72-0.967-0.93-2.204-0.583-3.35l19.175-63.006
			C150.624,0.681,152.729-0.441,154.722,0.163z"/>
	</g>
	<path fill="#F49600" d="M112.929,24.476c0,2.665,2.169,4.834,4.835,4.834c2.67,0,4.833-2.169,4.833-4.834
		c0-2.667-2.163-4.836-4.833-4.836C115.098,19.64,112.929,21.809,112.929,24.476z"/>
	<path fill="#F49600" d="M173.26,24.581c0,2.726,2.222,4.944,4.953,4.944c2.723,0,4.946-2.218,4.946-4.944
		c0-2.729-2.223-4.947-4.946-4.947C175.482,19.634,173.26,21.853,173.26,24.581z"/>
	<path fill="#F49600" d="M87.136,79.745c-1.563,0-2.872,1.189-3.006,2.747c-0.432,4.795,1.034,9.408,4.018,12.673
		c2.421,2.652,5.551,4.116,8.797,4.116c3.246,0,6.37-1.45,8.782-4.077c2.979-3.238,4.444-7.864,4.04-12.699
		c-0.134-1.56-1.444-2.76-3.008-2.76H87.136z M103.67,85.678c0.049,6.219-4.777,7.701-6.726,7.69
		c-1.907-0.014-6.701-1.432-6.731-7.69C93.772,85.678,100.104,85.678,103.67,85.678z"/>
	<path fill="#F49600" d="M18.664,79.617c-1.926,0-3.497,1.567-3.497,3.5c0,1.931,1.57,3.498,3.497,3.498h15.627
		c1.933,0,3.496-1.567,3.496-3.498c0-1.933-1.563-3.5-3.496-3.5H18.664z"/>
	<path fill="#F49600" d="M18.664,90.196c-1.926,0-3.497,1.563-3.497,3.495s1.57,3.499,3.497,3.499h15.627
		c1.933,0,3.496-1.566,3.496-3.499s-1.563-3.495-3.496-3.495H18.664z"/>
	<g>
		<path fill="#F49600" d="M162.679,85.041c-0.03,0.013-2.882,1.246-6.484,1.24h-1.773c-3.715,0-6.59-1.233-6.617-1.247
			c-1.764-0.765-3.824,0.033-4.605,1.798c-0.771,1.756,0.01,3.809,1.768,4.594c0.422,0.188,4.284,1.85,9.455,1.85h1.773
			c5.065,0.007,8.918-1.662,9.34-1.854c1.75-0.792,2.529-2.843,1.75-4.599C166.504,85.063,164.442,84.269,162.679,85.041z"/>
	</g>
	<path fill="#FFFFFF" stroke="#1E1E1C" stroke-miterlimit="10" d="M333.199,37.71"/>
	<path fill="#1E1E1C" d="M458.432,34.597l-1.676,5.647h-5.811l9.777-28.885h6.139l9.857,28.885h-5.768l-1.674-5.647H458.432z
		 M463.873,16.555l-4.01,13.297h7.979L463.873,16.555z"/>
	<path fill="#1E1E1C" d="M498.281,40.244h-4.91l-0.037-2.085c-1.025,0.939-3.031,2.576-6.592,2.576c-3.395,0-5.07-1.471-5.891-2.699
		c-1.311-1.925-1.188-4.253-1.188-6.463V19.79h4.953v11.044c-0.043,1.679-0.082,3.684,1.635,4.667
		c0.656,0.409,1.596,0.611,2.371,0.611c2.375,0,3.561-1.552,3.973-2.288c0.816-1.559,0.738-3.766,0.775-5.363V19.79h4.91V40.244z"/>
	<path fill="#1E1E1C" d="M522.258,36.601c-0.043,2.374,0.244,5.28-1.311,7.369c-1.27,1.717-3.932,3.107-8.551,3.107
		c-4.582,0-6.832-1.269-8.102-3.069c-0.49-0.736-0.857-1.596-1.27-3.353l5.4,0.041c0.123,0.408,0.207,0.653,0.492,1.022
		c1.063,1.554,3.313,1.512,3.682,1.512c2.453,0,3.723-0.938,4.254-1.921c0.574-1.066,0.531-2.127,0.531-4.421
		c-2.287,2.045-5.154,2.168-6.18,2.168c-1.225,0-2.572-0.201-3.719-0.734c-2.166-0.941-5.117-3.397-5.117-9
		c0-0.657,0-2.579,0.701-4.377c1.387-3.561,4.703-5.77,8.547-5.77c0.695,0,2.66,0.081,4.342,1.31
		c0.732,0.531,1.264,1.228,1.426,1.471V19.79h4.873V36.601z M517.184,27.073c-0.33-1.108-1.432-3.521-4.746-3.521
		c-0.695,0-2.332,0.125-3.645,1.556c-1.43,1.555-1.389,3.438-1.389,4.092c0,0.652,0,2.412,1.307,3.886
		c0.207,0.204,0.656,0.653,1.313,0.984c0.406,0.203,1.227,0.527,2.455,0.527c1.963,0,3.068-0.773,3.643-1.389
		c1.389-1.392,1.389-3.195,1.389-3.845C517.51,28.214,517.348,27.523,517.184,27.073z"/>
	<path fill="#1E1E1C" d="M540.748,26.211c-0.406-0.857-0.938-1.348-1.27-1.639c-1.266-1.1-2.617-1.47-4.293-1.47
		c-0.205,0-1.598,0-2.498,0.615c-0.738,0.487-0.9,1.146-0.9,1.512c0.041,0.697,0.531,1.186,0.656,1.269
		c0.531,0.409,1.881,0.735,3.52,1.025c1.104,0.202,2.207,0.365,3.313,0.611c1.104,0.244,2.334,0.614,3.232,1.269
		c0.738,0.534,2.25,1.963,2.25,4.461c0,0.983-0.244,1.92-0.693,2.781c-0.982,1.879-3.52,4.213-8.514,4.213
		c-3.846,0-6.584-1.31-7.852-2.087c-0.697-0.449-1.35-0.982-1.967-1.594l3.682-2.989c0.166,0.206,0.41,0.574,0.941,1.024
		c1.762,1.515,4.379,1.594,4.951,1.594c1.229,0,2.66-0.283,3.479-1.226c0.326-0.328,0.531-0.779,0.531-1.187
		c0-0.161-0.041-0.492-0.328-0.857c-0.529-0.737-1.186-0.779-2.701-1.106c-1.346-0.284-2.699-0.449-4.01-0.776
		c-0.896-0.245-5.602-1.392-5.645-5.812c0.043-1.555,0.656-2.699,0.943-3.15c1.023-1.596,3.436-3.518,7.855-3.518
		c1.594,0,5.729,0.244,8.795,3.805L540.748,26.211z"/>
	<path fill="#1E1E1C" d="M553.678,21.506c0.203-0.204,0.447-0.41,0.654-0.572c2.043-1.555,4.293-1.759,5.197-1.759
		c1.225,0,3.719,0.328,5.932,2.578c1.225,1.269,3.072,3.845,3.072,8.141c0,3.845-1.561,7.814-5.035,9.78
		c-1.801,1.023-3.479,1.185-4.256,1.185c-1.066,0-2.779-0.203-4.705-1.842c-0.328-0.286-0.613-0.57-0.902-0.899v2.126h-4.869V11.359
		h4.869L553.678,21.506z M562.393,25.72c-0.9-1.309-2.416-2.085-4.012-2.085c-1.268,0-2.33,0.449-3.191,1.349
		c-1.637,1.679-1.596,4.011-1.596,4.665c0,2.005,0.369,4.253,2.088,5.563c0.406,0.288,1.432,0.984,2.906,0.984
		c0.775,0,2.535-0.248,3.723-2.049c1.025-1.635,1.145-3.885,1.188-4.337C563.498,29.279,563.498,27.277,562.393,25.72z"/>
	<path fill="#1E1E1C" d="M591.152,40.244h-4.91l-0.037-2.085c-1.025,0.939-3.029,2.576-6.588,2.576
		c-3.398,0-5.072-1.471-5.895-2.699c-1.307-1.925-1.188-4.253-1.188-6.463V19.79h4.953v11.044c-0.041,1.679-0.082,3.684,1.637,4.667
		c0.656,0.409,1.596,0.611,2.371,0.611c2.373,0,3.559-1.552,3.971-2.288c0.82-1.559,0.738-3.766,0.775-5.363V19.79h4.91V40.244z"/>
	<path fill="#1E1E1C" d="M601.221,22.692c0.324-0.614,0.73-1.228,1.225-1.677c1.637-1.597,4.295-1.676,4.869-1.676h0.41v5.032
		c-1.025,0-4.951,0-6.137,3.762c-0.367,1.146-0.367,2.167-0.367,3.354v8.755h-4.748V19.79h4.748V22.692z"/>
	<path fill="#1E1E1C" d="M629.613,36.601c-0.043,2.374,0.242,5.28-1.311,7.369c-1.27,1.717-3.926,3.107-8.551,3.107
		c-4.584,0-6.834-1.269-8.102-3.069c-0.488-0.736-0.861-1.596-1.27-3.353l5.4,0.041c0.123,0.408,0.207,0.653,0.492,1.022
		c1.063,1.554,3.313,1.512,3.682,1.512c2.455,0,3.723-0.938,4.26-1.921c0.568-1.066,0.527-2.127,0.527-4.421
		c-2.291,2.045-5.156,2.168-6.176,2.168c-1.23,0-2.578-0.201-3.725-0.734c-2.168-0.941-5.117-3.397-5.117-9
		c0-0.657,0-2.579,0.699-4.377c1.389-3.561,4.705-5.77,8.549-5.77c0.695,0,2.66,0.081,4.338,1.31
		c0.736,0.531,1.268,1.228,1.432,1.471V19.79h4.871V36.601z M624.539,27.073c-0.324-1.108-1.432-3.521-4.748-3.521
		c-0.693,0-2.33,0.125-3.641,1.556c-1.432,1.555-1.391,3.438-1.391,4.092c0,0.652,0,2.412,1.309,3.886
		c0.205,0.204,0.658,0.653,1.311,0.984c0.406,0.203,1.225,0.527,2.457,0.527c1.961,0,3.066-0.773,3.637-1.389
		c1.393-1.392,1.393-3.195,1.393-3.845C624.865,28.214,624.701,27.523,624.539,27.073z"/>
	<path fill="#1E1E1C" d="M243.446,40.156h-5.454V26.989h-12.428v13.167h-5.453V11.2h5.453v10.911h12.428V11.2h5.454V40.156z"/>
	<path fill="#1E1E1C" d="M267.835,34.414c-0.822,2.092-3.487,6.356-9.599,6.356c-0.861,0-2.624-0.081-4.635-0.945
		c-2.13-0.981-6.029-3.813-6.029-10.006c0-2.213,0.576-3.854,0.904-4.592c0.82-2.052,3.485-6.193,9.597-6.193
		c0.779,0,2.583,0.083,4.51,0.945c2.217,0.941,6.031,3.689,6.071,9.84C268.654,30.557,268.614,32.485,267.835,34.414z
		 M257.991,23.464c-0.452,0-1.682,0.082-2.79,0.778c-1.065,0.698-2.501,2.38-2.501,5.456c0,0.983,0.123,1.844,0.41,2.787
		c0.37,0.986,1.764,3.775,5.126,3.775c3.732,0,5.374-3.282,5.289-6.521C263.405,26.54,261.599,23.464,257.991,23.464z"/>
	<path fill="#1E1E1C" d="M291.021,34.373c-0.328,0.862-0.738,1.721-1.311,2.502c-1.846,2.502-4.881,3.896-7.958,3.896
		c-0.739,0-2.419-0.123-4.264-0.945c-5.455-2.5-5.865-8.2-5.865-9.923c0-2.502,0.697-4.922,2.214-6.89
		c0.985-1.312,3.568-3.979,8.162-3.979c1.313,0,2.625,0.247,3.815,0.738c1.188,0.492,3.649,1.928,5.003,5.086l-4.39,2.05
		c-0.328-1.109-0.941-1.804-1.229-2.091c-0.575-0.576-1.559-1.396-3.447-1.396c-1.434,0-2.583,0.494-3.525,1.599
		c-1.519,1.763-1.519,4.063-1.519,4.758c0,1.067,0.166,1.847,0.288,2.256c0.616,2.379,2.296,4.142,4.881,4.142
		c3.526,0,4.594-3.115,4.962-4.018L291.021,34.373z"/>
	<path fill="#1E1E1C" d="M298.649,21.742c0.41-0.453,0.902-0.903,1.968-1.518c0.779-0.452,2.257-1.19,4.512-1.19
		c2.256,0,4.716,0.82,6.07,2.708c1.271,1.804,1.271,3.69,1.271,5.741v12.673h-4.838V28.877c-0.042-1.642,0.08-3.117-1.313-4.305
		c-0.41-0.371-1.19-0.863-2.543-0.863c-1.68,0-3.036,0.698-4.06,1.969c-0.411,0.492-0.738,1.105-0.901,1.722
		c-0.166,0.615-0.166,1.107-0.166,1.764v10.992h-4.92V11.2h4.92V21.742z"/>
	<path fill="#1E1E1C" d="M331.008,26.09c-0.409-0.863-0.942-1.354-1.271-1.642c-1.272-1.108-2.624-1.479-4.306-1.479
		c-0.207,0-1.601,0-2.504,0.617c-0.736,0.492-0.9,1.149-0.9,1.518c0.042,0.695,0.534,1.188,0.657,1.272
		c0.532,0.407,1.886,0.737,3.527,1.024c1.108,0.206,2.214,0.369,3.324,0.615c1.105,0.246,2.335,0.616,3.238,1.272
		c0.737,0.532,2.253,1.97,2.253,4.47c0,0.987-0.246,1.927-0.695,2.791c-0.984,1.884-3.527,4.223-8.53,4.223
		c-3.855,0-6.604-1.312-7.875-2.093c-0.697-0.449-1.353-0.981-1.971-1.597l3.692-2.996c0.165,0.207,0.41,0.573,0.943,1.026
		c1.765,1.518,4.389,1.599,4.964,1.599c1.228,0,2.666-0.284,3.485-1.229c0.327-0.33,0.534-0.78,0.534-1.188
		c0-0.166-0.04-0.493-0.329-0.861c-0.534-0.739-1.19-0.78-2.708-1.109c-1.352-0.287-2.707-0.449-4.02-0.779
		c-0.903-0.246-5.617-1.394-5.659-5.825c0.042-1.557,0.656-2.705,0.943-3.157c1.026-1.599,3.444-3.526,7.876-3.526
		c1.597,0,5.739,0.247,8.816,3.813L331.008,26.09z"/>
	<path fill="#1E1E1C" d="M356.805,34.373c-0.327,0.862-0.738,1.721-1.311,2.502c-1.845,2.502-4.881,3.896-7.958,3.896
		c-0.737,0-2.418-0.123-4.265-0.945c-5.453-2.5-5.863-8.2-5.863-9.923c0-2.502,0.697-4.922,2.215-6.89
		c0.984-1.312,3.567-3.979,8.161-3.979c1.313,0,2.625,0.247,3.815,0.738c1.188,0.492,3.648,1.928,5.005,5.086l-4.39,2.05
		c-0.329-1.109-0.946-1.804-1.231-2.091c-0.574-0.576-1.557-1.396-3.446-1.396c-1.435,0-2.583,0.494-3.526,1.599
		c-1.518,1.763-1.518,4.063-1.518,4.758c0,1.067,0.166,1.847,0.288,2.256c0.615,2.379,2.296,4.142,4.88,4.142
		c3.527,0,4.594-3.115,4.964-4.018L356.805,34.373z"/>
	<path fill="#1E1E1C" d="M364.434,21.742c0.41-0.453,0.901-0.903,1.969-1.518c0.78-0.452,2.254-1.19,4.512-1.19
		c2.256,0,4.717,0.82,6.07,2.708c1.27,1.804,1.27,3.69,1.27,5.741v12.673h-4.84V28.877c-0.041-1.642,0.084-3.117-1.313-4.305
		c-0.41-0.371-1.188-0.863-2.542-0.863c-1.682,0-3.034,0.698-4.06,1.969c-0.411,0.492-0.739,1.105-0.901,1.722
		c-0.166,0.615-0.166,1.107-0.166,1.764v10.992h-4.922V11.2h4.922V21.742z"/>
	<path fill="#1E1E1C" d="M402.044,40.156h-4.922l-0.041-2.092c-1.025,0.943-3.035,2.583-6.605,2.583
		c-3.402,0-5.086-1.476-5.902-2.707c-1.314-1.928-1.191-4.266-1.191-6.48V19.647h4.963v11.076c-0.041,1.68-0.084,3.69,1.641,4.674
		c0.656,0.409,1.6,0.615,2.379,0.615c2.377,0,3.566-1.559,3.979-2.295c0.818-1.56,0.738-3.774,0.779-5.374v-8.697h4.922V40.156z"/>
	<path fill="#1E1E1C" d="M412.421,40.156h-5.006V11.2h5.006V40.156z"/>
	<path fill="#1E1E1C" d="M421.607,30.889c0.082,0.614,0.287,1.886,1.311,3.115c0.695,0.862,1.928,1.967,4.473,1.967
		c2.541,0,4.018-1.187,4.676-1.886c0.16-0.164,0.41-0.491,0.693-0.943l4.186,2.421c-0.328,0.451-0.902,1.231-1.889,2.134
		c-1.145,1.064-3.895,3.074-8.119,3.074c-1.313,0-4.553-0.165-7.342-2.749c-2.336-2.214-3.199-5.043-3.199-8.243
		c0-1.722,0.248-3.361,0.904-4.92c0.902-2.051,3.443-5.824,9.393-5.824c4.592,0,7.014,2.377,8.076,3.936
		c0.945,1.437,1.889,3.939,2.012,7.919H421.607z M431.367,27.235c-0.041-0.246-0.123-0.942-0.41-1.638
		c-0.451-0.985-1.518-2.627-4.184-2.627c-1.064,0-1.641,0.206-2.053,0.371c-2.295,0.942-2.827,3.238-2.952,3.938L431.367,27.235z"/>
	<path fill="#1E1E1C" d="M241.616,74.445c-0.041,2.007,0,3.97-0.083,5.978c-0.082,2.66-0.45,5.154-2.251,7.279
		c-1.309,1.517-3.763,3.232-8.386,3.232c-1.063,0-4.582-0.041-7.405-2.249c-0.41-0.326-1.351-1.146-2.088-2.374
		c-1.513-2.659-1.39-5.605-1.39-11.619v-13.38h2.7v18.741c0.042,1.554,0.123,3.272,0.859,4.743c0.737,1.516,1.966,2.211,2.497,2.497
		c1.513,0.82,3.108,1.105,4.785,1.105c0.739,0,4.337,0,6.382-2.415c1.636-1.964,1.636-4.54,1.636-6.873V61.312h2.744V74.445z"/>
	<path fill="#1E1E1C" d="M260.927,90.199V80.052c0-2.619,0.04-4.172-0.449-5.319c-0.369-1.022-1.105-1.434-1.475-1.677
		c-1.106-0.614-2.209-0.614-2.659-0.614c-0.45,0-1.516,0-2.58,0.529c-1.431,0.658-2.575,2.252-2.944,3.728
		c-0.205,0.938-0.205,2.616-0.247,4.947v8.553h-2.411V70.682h2.411v3.479c0.165-0.491,0.45-1.269,1.392-2.167
		c0.778-0.735,2.168-1.723,4.748-1.723c3.639,0,5.275,2.007,5.932,3.358c0.694,1.554,0.655,3.11,0.694,6.423v10.146H260.927z"/>
	<path fill="#1E1E1C" d="M269.682,66.102v-3.724h2.372v3.724H269.682z M269.682,90.199V70.682h2.372v19.517H269.682z"/>
	<path fill="#1E1E1C" d="M283.873,90.199l-6.755-19.517h2.418l5.397,15.873l6.016-15.873h2.373l-7.488,19.517H283.873z"/>
	<path fill="#1E1E1C" d="M313.574,80.422l-15.136,0.039c-0.043,1.595,0.163,2.577,0.367,3.271c0.409,1.556,1.798,4.788,6.259,4.747
		c1.718,0,4.419-0.409,6.261-4.091l2.25,0.653c-0.201,0.411-0.694,1.513-1.513,2.536c-1.066,1.269-2.987,3.111-6.957,3.111
		c-0.695,0-2.659-0.042-4.501-1.023c-4.663-2.413-4.825-8.143-4.825-9.411c0-0.653,0.039-2.252,0.614-3.966
		c1.311-3.684,4.459-6.098,8.386-6.098c1.187,0,4.049,0.246,6.261,2.779c1.597,1.762,2.535,4.504,2.535,6.875V80.422z
		 M310.791,78.415c-0.572-5.032-3.927-6.054-6.053-6.054c-3.396,0-4.99,2.331-5.523,3.396c-0.368,0.817-0.614,1.839-0.737,2.703
		L310.791,78.415z"/>
	<path fill="#1E1E1C" d="M319.216,90.199V70.682h2.414v3.111c0.124-0.328,0.328-0.696,0.535-0.983
		c0.245-0.368,1.064-1.391,2.289-1.924c0.532-0.243,1.391-0.488,2.78-0.488c0.33,0,0.74,0,1.436,0.079l-0.042,2.171
		c-0.491-0.084-0.942-0.125-1.516-0.125c-2.985,0-4.825,1.762-5.274,4.624c-0.167,1.022-0.208,2.332-0.208,4.623v8.429H319.216z"/>
	<path fill="#1E1E1C" d="M332.924,84.634c0.327,1.349,1.798,3.846,5.438,3.846c1.844,0,3.029-0.532,3.601-0.982
		c0.861-0.652,1.393-1.802,1.393-2.824c0-0.612-0.205-1.227-0.531-1.716c-0.616-0.859-1.596-1.352-3.684-1.802
		c-1.923-0.45-4.952-0.775-6.34-2.454c-0.655-0.82-1.024-2.003-1.024-3.069c0.041-0.613,0.205-2.495,1.679-3.805
		c1.308-1.229,3.6-1.636,5.318-1.636c0.57,0,2.985,0.04,4.787,1.267c1.513,1.105,1.961,2.496,2.125,3.153l-2.289,0.611
		c-0.45-2.252-2.785-2.903-4.748-2.903c-1.594,0-2.658,0.364-3.192,0.736c-0.162,0.081-0.571,0.409-0.858,0.857
		c-0.411,0.698-0.451,1.391-0.451,1.68c0,2.288,2.415,2.74,4.092,3.151l2.046,0.406c1.718,0.451,3.395,1.023,4.459,2.538
		c0.899,1.228,0.94,2.411,0.94,2.984c0,0.411-0.042,1.518-0.613,2.619c-0.778,1.474-2.743,3.397-6.668,3.397
		c-1.188,0-4.338-0.164-6.549-2.947c-0.57-0.776-0.94-1.473-1.306-2.289L332.924,84.634z"/>
	<path fill="#1E1E1C" d="M351.17,66.102v-3.724h2.374v3.724H351.17z M351.17,90.199V70.682h2.374v19.517H351.17z"/>
	<path fill="#1E1E1C" d="M368.801,89.667c-0.531,0.367-1.516,0.901-3.111,0.901c-0.205,0-0.451,0-0.655-0.042
		c-0.531-0.042-2.006-0.166-2.576-1.719c-0.328-0.859-0.285-2.946-0.285-3.887V72.729h-4.092v-2.047h4.092v-8.304h2.33v8.304h4.297
		v2.047h-4.297v10.758c0.04,0.697,0.04,1.393,0,2.09c0,1.144-0.039,2.863,1.594,2.863c0.984,0,1.966-0.697,2.703-1.226V89.667z"/>
	<path fill="#1E1E1C" d="M379.8,93.023c-1.797,4.665-2.533,7.075-5.645,7.075c-1.348,0-2.168-0.489-2.576-0.774v-2.455
		c1.102,0.775,1.879,0.942,2.537,0.942c1.389,0,1.797-0.901,2.615-2.945c0.287-0.617,0.535-1.231,0.779-1.843l1.023-2.824
		l-6.752-19.517h2.334l5.684,16.61l6.346-16.61h2.455L379.8,93.023z"/>
	<path fill="#1E1E1C" d="M416.49,84.267c-1.229,3.926-4.295,6.423-8.43,6.423c-1.35,0-4.461-0.247-6.748-3.272
		c-0.859-1.187-2.008-3.275-2.008-6.753c0-0.859,0.039-2.783,0.9-4.95c1.924-4.95,6.094-5.522,8.018-5.522
		c2.254,0,4.135,0.615,5.729,2.169c2.211,2.045,3.025,5.072,3.07,7.978C417.021,80.993,417.021,82.549,416.49,84.267z
		 M408.185,72.237c-0.615,0-2.131,0.083-3.523,1.106c-1.512,1.145-2.781,3.274-2.781,7.321c0,0.736-0.08,4.665,2.58,6.753
		c0.611,0.491,1.762,1.143,3.637,1.143c2.867,0,6.262-1.798,6.346-7.975C414.486,74.244,411.291,72.237,408.185,72.237z"/>
	<path fill="#1E1E1C" d="M425.941,72.729v17.47h-2.412v-17.47h-4.299v-2.047h4.299V66.96c0.043-2.088-0.082-2.661,0.246-3.764
		c0.408-1.229,1.35-2.458,4.086-2.458c0.945,0,1.602,0.124,2.496,0.287V63.4c-0.406-0.162-1.182-0.531-2.328-0.531
		c-0.818,0-1.186,0.246-1.428,0.531c-0.775,0.776-0.66,1.553-0.66,3.354v3.929h4.416v2.047H425.941z"/>
	<path fill="#1E1E1C" d="M464.432,90.218l-3.314-8.71h-12.93l-3.313,8.71h-3.025l11.779-28.881h2.291l11.498,28.881H464.432z
		 M454.732,64.526l-5.645,14.771h11.211L454.732,64.526z"/>
	<path fill="#1E1E1C" d="M474.164,70.706v3.192c0.287-0.654,0.488-0.983,0.736-1.27c0.695-0.943,2.293-2.334,5.158-2.334
		c2.088,0,3.313,0.575,4.051,1.025c2.982,1.88,4.131,5.933,4.131,9.202c0,0.66-0.043,1.801-0.412,3.357
		c-0.369,1.432-2.088,6.79-7.77,6.79c-3.072,0-4.707-1.676-5.359-2.699c-0.207-0.287-0.291-0.448-0.535-1.023v13.626h-2.369V70.706
		H474.164z M476.293,87.194c1.307,1.102,2.742,1.146,3.396,1.146c4.5,0,6.051-4.381,6.051-8.142c0-0.614-0.037-1.926-0.531-3.438
		c-1.186-3.724-4.047-4.255-5.564-4.255c-0.857,0-1.799,0.205-2.533,0.616c-1.469,0.815-2.332,2.49-2.66,4.05
		c-0.203,1.022-0.25,2.005-0.287,3.027C474.082,82.652,474.201,85.472,476.293,87.194z"/>
	<path fill="#1E1E1C" d="M495.686,70.706v3.192c0.285-0.654,0.49-0.983,0.734-1.27c0.695-0.943,2.293-2.334,5.154-2.334
		c2.092,0,3.316,0.575,4.055,1.025c2.986,1.88,4.131,5.933,4.131,9.202c0,0.66-0.043,1.801-0.412,3.357
		c-0.363,1.432-2.086,6.79-7.773,6.79c-3.066,0-4.703-1.676-5.359-2.699c-0.201-0.287-0.283-0.448-0.529-1.023v13.626h-2.371V70.706
		H495.686z M497.813,87.194c1.309,1.102,2.742,1.146,3.395,1.146c4.502,0,6.055-4.381,6.055-8.142c0-0.614-0.039-1.926-0.527-3.438
		c-1.191-3.724-4.053-4.255-5.566-4.255c-0.859,0-1.803,0.205-2.541,0.616c-1.469,0.815-2.328,2.49-2.656,4.05
		c-0.203,1.022-0.244,2.005-0.285,3.027C495.605,82.652,495.727,85.472,497.813,87.194z"/>
	<path fill="#1E1E1C" d="M514.789,90.072V61.191h2.457v28.881H514.789z"/>
	<path fill="#1E1E1C" d="M524.197,66.121v-3.722h2.375v3.722H524.197z M524.197,90.218V70.706h2.375v19.513H524.197z"/>
	<path fill="#1E1E1C" d="M550.096,80.441l-15.141,0.043c-0.041,1.598,0.166,2.576,0.365,3.275c0.41,1.552,1.807,4.783,6.264,4.742
		c1.717,0,4.42-0.411,6.26-4.091l2.252,0.654c-0.207,0.407-0.697,1.515-1.516,2.537c-1.066,1.269-2.986,3.109-6.955,3.109
		c-0.693,0-2.66-0.042-4.498-1.02c-4.666-2.414-4.832-8.143-4.832-9.412c0-0.657,0.045-2.252,0.615-3.97
		c1.311-3.682,4.461-6.096,8.389-6.096c1.184,0,4.051,0.247,6.258,2.783c1.598,1.76,2.539,4.499,2.539,6.873V80.441z
		 M547.313,78.436c-0.574-5.03-3.926-6.053-6.057-6.053c-3.396,0-4.992,2.33-5.525,3.399c-0.365,0.814-0.609,1.836-0.738,2.699
		L547.313,78.436z"/>
	<path fill="#1E1E1C" d="M568.545,90.218v-3.517c-0.904,2.578-3.4,3.968-6.018,3.968c-0.736,0-2.412-0.124-4.047-1.229
		c-3.932-2.577-4.012-8.019-4.012-9c0-1.185,0.162-6.381,4.213-8.959c0.697-0.408,2.172-1.188,4.215-1.188
		c1.594,0,3.189,0.492,4.338,1.555c0.898,0.861,1.102,1.434,1.311,1.965V61.337h2.369v28.881H568.545z M566.254,73.487
		c-0.537-0.365-1.639-0.981-3.236-0.981c-0.49,0-1.475,0-2.533,0.572c-1.682,0.899-3.398,3.109-3.398,7.363
		c0,0.656-0.08,7.938,5.811,7.938c1.514,0,2.781-0.366,3.801-1.471c1.639-1.638,1.885-4.174,1.885-6.304
		C568.66,76.678,567.885,74.673,566.254,73.487z"/>
	<path fill="#1E1E1C" d="M589.223,81.508c0.082,1.718,0.291,2.451,0.656,3.232c0.818,1.8,2.988,3.802,7.367,3.802
		c0.572,0,1.838,0,3.273-0.409c2.66-0.814,4.703-2.822,4.703-5.728c0-0.45-0.037-1.635-0.775-2.783
		c-0.984-1.556-2.621-2.249-5.977-3.149c-2.084-0.531-4.375-1.023-6.342-1.963c-1.309-0.653-4.168-2.289-4.168-6.423
		c0-2.25,0.775-3.562,1.387-4.296c2.498-3.229,7.361-3.189,8.143-3.189c3.15,0,6.18,0.859,8.264,3.353
		c0.531,0.655,1.063,1.389,1.682,2.983l-2.541,1.354c-0.283-0.903-0.609-1.718-1.184-2.496c-0.816-1.186-2.785-2.946-6.303-2.946
		c-0.574,0-3.643,0.039-5.441,1.838c-0.531,0.535-1.35,1.475-1.35,3.318c0,1.018,0.287,1.92,0.857,2.698
		c1.271,1.678,3.396,2.168,5.277,2.7c2.705,0.693,6.346,1.435,8.555,3.272c0.898,0.695,2.697,2.498,2.697,5.645
		c0,1.516-0.449,4.338-3.557,6.588c-1.35,0.942-3.438,2.046-7.201,2.046c-5.525,0-9.574-2.374-10.762-8.018L589.223,81.508z"/>
	<path fill="#1E1E1C" d="M626.373,75.656c-0.863-2.169-2.988-3.272-5.275-3.272c-0.738,0-2.461,0.08-4.051,1.431
		c-2.535,2.169-2.582,5.809-2.582,6.67c0,0.574,0.084,3.927,1.842,6.096c0.287,0.328,0.857,0.942,1.924,1.433
		c0.492,0.243,1.35,0.57,2.66,0.57c2.457,0,4.133-1.141,5.279-3.271l2.453,0.574c-0.533,1.105-1.184,2.085-2.127,2.905
		c-0.9,0.816-2.705,1.921-5.688,1.921c-1.063,0-3.723-0.083-5.973-2.21c-2.908-2.742-2.986-6.792-2.986-7.897
		c0-1.47,0.162-2.698,0.611-4.046c1.27-4.011,4.545-6.344,8.756-6.344c3.105,0,4.744,1.185,5.688,2.169
		c1.104,1.144,1.516,2.169,1.719,2.74L626.373,75.656z"/>
	<path fill="#1E1E1C" d="M632.918,66.121v-3.722h2.375v3.722H632.918z M632.918,90.218V70.706h2.375v19.513H632.918z"/>
	<path fill="#1E1E1C" d="M658.16,80.441l-15.137,0.043c-0.041,1.598,0.164,2.576,0.369,3.275c0.404,1.552,1.799,4.783,6.256,4.742
		c1.719,0,4.42-0.411,6.262-4.091l2.25,0.654c-0.203,0.407-0.695,1.515-1.514,2.537c-1.063,1.269-2.988,3.109-6.955,3.109
		c-0.693,0-2.656-0.042-4.5-1.02c-4.666-2.414-4.828-8.143-4.828-9.412c0-0.657,0.043-2.252,0.611-3.97
		c1.313-3.682,4.461-6.096,8.393-6.096c1.186,0,4.045,0.247,6.26,2.783c1.594,1.76,2.533,4.499,2.533,6.873V80.441z M655.377,78.436
		c-0.572-5.03-3.924-6.053-6.053-6.053c-3.395,0-4.992,2.33-5.527,3.399c-0.365,0.814-0.609,1.836-0.73,2.699L655.377,78.436z"/>
	<path fill="#1E1E1C" d="M675.268,90.218V80.073c0-2.615,0.035-4.173-0.453-5.315c-0.365-1.026-1.105-1.438-1.475-1.68
		c-1.1-0.614-2.207-0.614-2.656-0.614c-0.447,0-1.516,0-2.578,0.534c-1.432,0.651-2.576,2.249-2.945,3.724
		c-0.205,0.938-0.205,2.615-0.244,4.949v8.548H662.5V70.706h2.416v3.477c0.162-0.49,0.447-1.268,1.393-2.169
		c0.771-0.736,2.164-1.719,4.744-1.719c3.637,0,5.275,2.007,5.932,3.354c0.693,1.56,0.654,3.111,0.693,6.424v10.146H675.268z"/>
	<path fill="#1E1E1C" d="M696.509,75.655c-0.859-2.168-2.984-3.273-5.277-3.273c-0.736,0-2.455,0.083-4.048,1.434
		c-2.535,2.166-2.58,5.806-2.58,6.667c0,0.57,0.086,3.927,1.842,6.096c0.291,0.328,0.859,0.944,1.928,1.43
		c0.485,0.248,1.347,0.576,2.653,0.576c2.457,0,4.135-1.146,5.281-3.276l2.453,0.578c-0.527,1.103-1.188,2.083-2.131,2.903
		c-0.895,0.818-2.697,1.923-5.682,1.923c-1.066,0-3.722-0.086-5.976-2.211c-2.906-2.739-2.986-6.792-2.986-7.896
		c0-1.473,0.162-2.7,0.615-4.052c1.266-4.007,4.543-6.339,8.755-6.339c3.111,0,4.742,1.184,5.689,2.167
		c1.104,1.146,1.51,2.167,1.715,2.742L696.509,75.655z"/>
	<path fill="#1E1E1C" d="M719.013,80.413l-15.137,0.042c-0.037,1.598,0.166,2.58,0.369,3.271c0.412,1.557,1.801,4.789,6.26,4.747
		c1.719,0,4.416-0.407,6.262-4.091l2.246,0.654c-0.203,0.411-0.691,1.515-1.514,2.536c-1.063,1.27-2.98,3.109-6.953,3.109
		c-0.695,0-2.658-0.041-4.5-1.024c-4.666-2.412-4.83-8.136-4.83-9.406c0-0.657,0.043-2.255,0.617-3.968
		c1.309-3.683,4.461-6.096,8.387-6.096c1.189,0,4.049,0.242,6.262,2.781c1.594,1.757,2.531,4.499,2.531,6.87V80.413z M716.235,78.41
		c-0.576-5.032-3.93-6.056-6.059-6.056c-3.395,0-4.988,2.331-5.52,3.395c-0.369,0.821-0.615,1.842-0.74,2.701L716.235,78.41z"/>
	<path fill="#1E1E1C" d="M724.052,84.668c0.328,1.352,1.799,3.846,5.441,3.846c1.838,0,3.025-0.531,3.604-0.978
		c0.855-0.66,1.387-1.802,1.387-2.827c0-0.611-0.203-1.225-0.531-1.719c-0.611-0.857-1.596-1.35-3.684-1.796
		c-1.924-0.454-4.949-0.78-6.34-2.455c-0.652-0.822-1.021-2.01-1.021-3.071c0.037-0.614,0.201-2.495,1.676-3.804
		c1.309-1.229,3.6-1.636,5.318-1.636c0.572,0,2.986,0.039,4.789,1.267c1.512,1.105,1.963,2.498,2.125,3.149l-2.291,0.613
		c-0.447-2.248-2.781-2.904-4.744-2.904c-1.598,0-2.66,0.37-3.197,0.737c-0.16,0.082-0.568,0.409-0.854,0.859
		c-0.41,0.694-0.449,1.39-0.449,1.678c0,2.289,2.416,2.739,4.094,3.149l2.047,0.41c1.711,0.447,3.385,1.021,4.457,2.534
		c0.896,1.229,0.938,2.417,0.938,2.987c0,0.41-0.041,1.516-0.613,2.617c-0.775,1.477-2.74,3.396-6.666,3.396
		c-1.191,0-4.342-0.165-6.551-2.946c-0.572-0.775-0.941-1.471-1.305-2.288L724.052,84.668z"/>
</g>
</svg>
