<?xml version="1.0" encoding="UTF-8"?>
<!-- Generator: Adobe Illustrator 17.1.0, SVG Export Plug-In . SVG Version: 6.00 Build 0)  -->
<!DOCTYPE svg PUBLIC "-//W3C//DTD SVG 1.1//EN" "http://www.w3.org/Graphics/SVG/1.1/DTD/svg11.dtd">
<svg version="1.1" id="Ebene_1" xmlns="http://www.w3.org/2000/svg" xmlns:xlink="http://www.w3.org/1999/xlink" x="0px" y="0px" viewBox="0 0 1306 595.3" enable-background="new 0 0 1306 595.3" xml:space="preserve">
<g>
	<g>
		<path fill="#1D1D1B" d="M784,130.5L800.7,20h35.1l-31.3,175.8h-35.6L748.4,92.2l-20.3,103.6h-35.7L661,20h35.4l16.5,110.3    L733.6,20h29.8L784,130.5z"/>
		<path fill="#1D1D1B" d="M955.7,119.7h-55.3v46.6h65.4v29.5H864.9V20h100.7v29.6h-65.2v41.5h55.3V119.7z"/>
		<path fill="#1D1D1B" d="M1051,131.5h-17.6v64.2h-35.5V20h56.6c17.8,0,31.5,4.6,41.2,13.8s14.5,22.3,14.5,39.3    c0,23.3-8.5,39.7-25.5,49l30.8,72v1.7h-38.2L1051,131.5z M1033.4,102h20.2c7.1,0,12.4-2.4,15.9-7.1s5.3-11,5.3-18.9    c0-17.6-6.9-26.4-20.6-26.4h-20.8V102z"/>
		<path fill="#1D1D1B" d="M1191.8,127.9l-14,17.6v50.2h-35.5V20h35.5v76.7l11.2-19l32.7-57.7h43.5l-50.3,77.3l51.2,98.5h-42.1    L1191.8,127.9z"/>
	</g>
	<g>
		<path fill="#1D1D1B" d="M714.1,342.3h-17.6v64.2H661V230.8h56.6c17.8,0,31.5,4.6,41.2,13.8c9.7,9.2,14.5,22.3,14.5,39.3    c0,23.3-8.5,39.7-25.5,49l30.8,72v1.7h-38.2L714.1,342.3z M696.5,312.7h20.2c7.1,0,12.4-2.4,15.9-7.1c3.5-4.7,5.3-11,5.3-18.9    c0-17.6-6.9-26.4-20.6-26.4h-20.8V312.7z"/>
		<path fill="#1D1D1B" d="M891.9,370.6h-48.4l-9.4,36h-37.5l54.9-175.8h32.5l55.3,175.8h-37.9L891.9,370.6z M851.2,341H884    l-16.4-62.7L851.2,341z"/>
		<path fill="#1D1D1B" d="M1072.2,230.8V350c-0.2,18.3-5.2,32.3-15.1,42c-9.9,9.7-24.1,14.5-42.6,14.5c-18.8,0-33.2-4.9-43.2-14.7    c-9.9-9.8-14.9-24-14.9-42.6V230.8h35.7v118.6c0,10,1.6,17.1,4.8,21.4c3.2,4.3,9.1,6.4,17.5,6.4c8.5,0,14.2-2.1,17.4-6.3    c3.1-4.2,4.8-11.2,4.8-20.8V230.8H1072.2z"/>
		<path fill="#1D1D1B" d="M1153.4,230.8l33.2,127.1l33.1-127.1h46.4v175.8h-35.6V359l3.3-73.3l-35.1,120.9h-24.1l-35.1-120.9    l3.3,73.3v47.6H1107V230.8H1153.4z"/>
	</g>
	<g>
		<path fill="#1D1D1B" d="M711,545.7h-31l-7.1,24H661l29.6-91.8h9.9l29.6,91.8h-11.9L711,545.7z M683,535.8h25l-12.6-41.8L683,535.8    z"/>
		<path fill="#1D1D1B" d="M801.9,477.9v65.3c-0.1,8.7-2.6,15.5-7.6,20.4c-5,4.9-11.9,7.4-20.8,7.4c-9.1,0-16-2.4-20.8-7.2    c-4.8-4.8-7.2-11.7-7.3-20.6v-65.3h11.5v64.8c0,6.2,1.3,10.8,3.9,13.8c2.6,3,6.9,4.6,12.7,4.6c5.9,0,10.1-1.5,12.8-4.6    c2.6-3,3.9-7.7,3.9-13.8v-64.8H801.9z"/>
		<path fill="#1D1D1B" d="M882.7,558.3l-2,2.5c-5.8,6.8-14.3,10.2-25.5,10.2c-9.9,0-17.7-3.3-23.4-9.9c-5.7-6.6-8.5-15.9-8.7-27.9    v-18c0-12.9,2.6-22.5,7.7-28.9c5.2-6.4,12.9-9.6,23.1-9.6c8.7,0,15.6,2.4,20.5,7.3s7.7,11.8,8.2,20.8h-11.5    c-0.5-5.7-2.1-10.2-4.8-13.4c-2.7-3.2-6.8-4.8-12.3-4.8c-6.6,0-11.4,2.2-14.5,6.5c-3.1,4.3-4.7,11.2-4.8,20.7v18.7    c0,9.3,1.8,16.3,5.3,21.3c3.5,4.9,8.6,7.4,15.2,7.4c6.2,0,11-1.5,14.2-4.5l1.7-1.6v-21.1h-16.8V524h28.3V558.3z"/>
		<path fill="#1D1D1B" d="M947.2,546.5c0-4.6-1.2-8.1-3.7-10.5c-2.5-2.4-7-4.8-13.4-7.1c-6.5-2.3-11.4-4.7-14.9-7.3    c-3.4-2.5-6-5.4-7.7-8.7c-1.7-3.3-2.6-7-2.6-11.2c0-7.3,2.4-13.3,7.3-18c4.9-4.7,11.2-7.1,19.1-7.1c5.4,0,10.2,1.2,14.4,3.6    c4.2,2.4,7.4,5.7,9.7,10c2.3,4.3,3.4,9,3.4,14.1h-11.6c0-5.7-1.4-10.1-4.1-13.2c-2.7-3.1-6.7-4.7-11.8-4.7    c-4.7,0-8.3,1.3-10.8,3.9c-2.6,2.6-3.8,6.3-3.8,11c0,3.9,1.4,7.1,4.2,9.7c2.8,2.6,7.1,4.9,12.9,7c9,3,15.5,6.7,19.4,11    c3.9,4.4,5.8,10.1,5.8,17.2c0,7.4-2.4,13.4-7.3,17.9c-4.8,4.5-11.4,6.7-19.7,6.7c-5.3,0-10.3-1.2-14.8-3.5    c-4.5-2.3-8.1-5.6-10.7-9.8c-2.6-4.2-3.9-9.1-3.9-14.5h11.6c0,5.7,1.6,10.1,4.8,13.2c3.2,3.2,7.5,4.7,13,4.7    c5.1,0,8.9-1.3,11.5-3.9C945.9,554.6,947.2,551,947.2,546.5z"/>
		<path fill="#1D1D1B" d="M979.8,569.7v-91.8h26.2c8.4,0,14.7,2,18.9,6.1c4.2,4.1,6.3,10.2,6.3,18.4c0,4.3-1.1,8.1-3.2,11.4    c-2.1,3.3-5,5.8-8.7,7.6c4.2,1.3,7.5,3.8,10,7.8c2.5,3.9,3.7,8.6,3.7,14.1c0,8.2-2.3,14.7-6.8,19.4c-4.5,4.7-11,7.1-19.3,7.1    H979.8z M991.4,517.1h14.8c4,0,7.2-1.3,9.7-4c2.5-2.7,3.7-6.3,3.7-10.7c0-5.1-1.1-8.7-3.3-11c-2.2-2.3-5.6-3.4-10.2-3.4h-14.6    V517.1z M991.4,526.8v33.1h15.8c4.4,0,7.8-1.4,10.4-4.3c2.6-2.9,3.8-6.9,3.8-12.1c0-11.1-4.7-16.6-14-16.6H991.4z"/>
		<path fill="#1D1D1B" d="M1110.3,477.9v65.3c-0.1,8.7-2.6,15.5-7.6,20.4c-5,4.9-11.9,7.4-20.8,7.4c-9.1,0-16-2.4-20.8-7.2    c-4.8-4.8-7.2-11.7-7.3-20.6v-65.3h11.5v64.8c0,6.2,1.3,10.8,3.9,13.8c2.6,3,6.9,4.6,12.7,4.6c5.9,0,10.1-1.5,12.8-4.6    c2.6-3,3.9-7.7,3.9-13.8v-64.8H1110.3z"/>
		<path fill="#1D1D1B" d="M1161.7,532.6h-16.1v37.2h-11.6v-91.8h25.7c9,0,15.8,2.3,20.4,7c4.6,4.7,6.9,11.6,6.9,20.6    c0,5.7-1.3,10.6-3.8,14.9c-2.5,4.2-6,7.4-10.6,9.6l17.8,39v0.8H1178L1161.7,532.6z M1145.5,522.7h14c4.8,0,8.7-1.6,11.6-4.7    c2.9-3.1,4.3-7.3,4.3-12.5c0-11.8-5.3-17.7-16-17.7h-13.9V522.7z"/>
		<path fill="#1D1D1B" d="M1266,558.3l-2,2.5c-5.8,6.8-14.3,10.2-25.5,10.2c-9.9,0-17.7-3.3-23.4-9.9c-5.7-6.6-8.5-15.9-8.7-27.9    v-18c0-12.9,2.6-22.5,7.7-28.9c5.2-6.4,12.9-9.6,23.1-9.6c8.7,0,15.6,2.4,20.5,7.3s7.7,11.8,8.2,20.8h-11.5    c-0.5-5.7-2.1-10.2-4.8-13.4c-2.7-3.2-6.8-4.8-12.3-4.8c-6.6,0-11.4,2.2-14.5,6.5c-3.1,4.3-4.7,11.2-4.8,20.7v18.7    c0,9.3,1.8,16.3,5.3,21.3c3.5,4.9,8.6,7.4,15.2,7.4c6.2,0,11-1.5,14.2-4.5l1.7-1.6v-21.1h-16.8V524h28.3V558.3z"/>
	</g>
</g>
<path fill="#1D1D1B" d="M536,55.8v197.4l-52.4,195.4l-166.5,86.1H57v-379h91h35V119V55.8H536 M572,19.8H147v100H21v451h304.7  L514,473.4L572,258V19.8L572,19.8z"/>
</svg>