<?xml version="1.0" encoding="UTF-8" standalone="no"?>
<!DOCTYPE svg PUBLIC "-//W3C//DTD SVG 1.1//EN" "http://www.w3.org/Graphics/SVG/1.1/DTD/svg11.dtd">
<svg width="100%" height="100%" viewBox="0 0 1196 1196" version="1.1" xmlns="http://www.w3.org/2000/svg" xmlns:xlink="http://www.w3.org/1999/xlink" xml:space="preserve" xmlns:serif="http://www.serif.com/" style="fill-rule:evenodd;clip-rule:evenodd;stroke-linecap:round;stroke-linejoin:round;stroke-miterlimit:1.5;">
    <g transform="matrix(1.23288,0,0,1.15981,-291.005,-142.596)">
        <ellipse cx="720.407" cy="637.763" rx="482.61" ry="513.017" style="fill:rgb(0,152,219);stroke:rgb(0,152,219);stroke-width:0.84px;"/>
    </g>
    <g id="logo_compact_version_white.svg" transform="matrix(0.453474,0,0,0.453474,598,780.402)">
        <g transform="matrix(1,0,0,1,-1033.5,-811)">
            <g transform="matrix(1,0,0,1,-435.494,-223.383)">
                <g>
                    <g transform="matrix(5.55556,0,0,5.55556,0,-583.053)">
                        <rect x="106.157" y="230.912" width="31.504" height="16.326" style="fill:white;"/>
                    </g>
                    <g transform="matrix(5.55556,0,0,5.55556,0,-583.053)">
                        <rect x="204.845" y="230.912" width="31.195" height="16.326" style="fill:white;"/>
                    </g>
                    <g transform="matrix(5.55556,0,0,5.55556,0,-872.467)">
                        <path d="M204.827,256.957L204.837,259.008L204.837,273.287L236.364,273.287C236.603,267.899 237.029,262.397 237.787,256.957L204.827,256.957" style="fill:white;fill-rule:nonzero;"/>
                    </g>
                    <g transform="matrix(0,5.55556,5.55556,0,-792.458,-80.0083)">
                        <path d="M114.315,248.789L130.644,248.789L130.644,280.463C125.424,280.602 119.877,280.846 114.315,281.454L114.315,248.789" style="fill:white;fill-rule:nonzero;"/>
                    </g>
                    <g transform="matrix(5.55556,0,0,5.55556,0,-1283.49)">
                        <path d="M149.768,286.201C145.943,289.707 143.714,292.886 138.306,301.482L138.939,274.107C129.074,275.058 119.209,275.371 109.335,275.371L78.454,275.371L78.454,283.012L105.829,283.012L106.147,313.257L106.147,321.211L140.301,321.211C142.782,308.781 147.768,297.193 158.045,290.026C166.959,283.967 175.855,283.331 179.685,283.331C183.828,283.331 188.927,284.29 192.433,286.201C198.791,290.026 203.248,297.025 204.517,311.665C204.662,314.802 204.718,318.004 204.77,321.211L239.64,321.211C242.061,311.347 246.246,302.114 253.864,294.796C264.051,285.241 274.562,284.29 279.974,284.29C282.512,284.29 289.895,283.967 295.303,288.738C303.786,295.527 308.547,310.555 309.535,321.211L347.28,321.211C349.279,309.75 352.496,301.281 356.705,295.433C365.61,282.375 379.299,280.784 384.716,280.784C389.492,280.784 404.769,282.071 411.131,296.702C413.364,302.76 413.364,309.436 413.364,311.665C413.364,317.719 412.732,325.987 418.458,330.135C421.956,332.682 427.059,332.682 428.323,332.682C437.874,332.991 442.345,326.956 443.932,323.758C444.883,321.539 445.201,319.301 445.201,316.764C445.201,304.666 436.277,293.837 434.376,291.926C433.417,290.344 432.148,289.375 430.551,288.101C414.001,273.475 390.756,272.511 384.716,272.511C378.354,272.511 364.023,272.829 348.741,281.107C342.575,284.29 337.453,288.134 333.071,292.306C330.018,287.586 326.296,284.164 324.283,282.375C312.822,271.551 296.529,271.869 292.058,271.869C281.88,271.869 260.554,272.829 243.994,293.837C242.084,296.384 239.856,299.89 236.349,306.258C234.12,297.025 232.852,293.209 229.982,289.066C218.52,271.869 197.831,271.237 191.787,271.237C186.057,271.237 165.035,272.188 149.768,286.201" style="fill:white;fill-rule:nonzero;"/>
                    </g>
                    <g transform="matrix(-2.33325,5.04184,5.04184,2.33325,1249.57,-1671.09)">
                        <path d="M328.039,245.254C333.473,247.769 338.202,249.946 342.863,252.104L328.039,284.137C322.609,281.737 317.565,279.759 312.82,278.14L328.039,245.254" style="fill:white;fill-rule:nonzero;"/>
                    </g>
                    <g transform="matrix(-2.27228,5.06961,5.06961,2.27228,1355.46,-1460.88)">
                        <path d="M327.992,219.138C332.998,221.648 337.752,224.446 342.057,227.627L327.992,259.007C322.659,255.74 317.379,253.06 313.603,251.24L327.992,219.138" style="fill:white;fill-rule:nonzero;"/>
                    </g>
                    <g transform="matrix(5.55556,0,0,5.55556,0,-128.133)">
                        <path d="M106.156,175.083L106.156,186.793L105.828,213.535L78.454,213.535L78.454,221.181L162.502,221.181L162.502,213.535L137.988,213.535L137.665,186.793L137.665,175.083L106.156,175.083Z" style="fill:white;fill-rule:nonzero;"/>
                    </g>
                    <g transform="matrix(5.55556,0,0,5.55556,0,-128.133)">
                        <path d="M204.845,175.083L204.845,186.793L204.517,213.535L179.381,213.535L179.381,221.181L236.752,221.181L236.752,213.535L236.354,213.535L236.045,186.793L236.045,175.083L204.845,175.083Z" style="fill:white;fill-rule:nonzero;"/>
                    </g>
                    <g transform="matrix(5.55556,0,0,5.55556,0,-142.6)">
                        <path d="M435.659,189.726C431.202,197.357 417.503,216.768 390.446,216.768C365.759,216.768 353.357,199.478 347.888,177.689L314.446,177.689C324.231,206.29 348.422,226.652 382.81,226.652C416.229,226.652 432.789,208.172 439.788,197.357C444.25,190.662 447.434,182.08 450.299,174.426L442.658,172.216C442.344,173.798 439.474,182.708 435.659,189.726" style="fill:white;fill-rule:nonzero;"/>
                    </g>
                </g>
            </g>
        </g>
    </g>
</svg>
