<?xml version="1.0" encoding="UTF-8"?><svg id="Ebene_2" xmlns="http://www.w3.org/2000/svg" viewBox="0 0 862.23 154.72"><defs><style>.cls-1{fill:#ff5959;}.cls-2{fill:#171d26;}</style></defs><g id="td-logo-main-b_r"><path class="cls-2" d="m31.59,102.84c-6.49,0-10.93-3.93-10.93-11.95v-37.27s23.39,0,23.39,0v-18.1s-23.22,0-23.22,0V11.61L0,13.83v77.05c0,21,11.95,31.24,30.24,30.69,6.32-.19,11.26-1.15,17.24-3.54l-5.81-17.76c-3.07,1.54-6.83,2.56-10.07,2.56Z"/><polygon class="cls-2" points="108.76 72.4 100.05 95.62 92.03 71.88 79.22 35.51 54.97 35.51 88.61 119.4 72.9 154.71 95.78 154.71 147.19 35.51 124.13 35.51 108.76 72.4"/><path class="cls-2" d="m206.3,32.94c-9.56,0-20.83,4.63-27.32,14.02l-1.37-11.45h-19.47v119.2h20.71v-45.08c5.98,9.22,19.24,11.95,28.12,11.95,26.98,0,42.52-19.47,42.52-44.06s-17.25-44.59-43.2-44.59Zm-1.54,68.5c-14.17,0-23.91-10.76-23.91-23.91s8.88-23.91,23.91-23.91,23.91,10.76,23.91,23.91-9.73,23.91-23.91,23.91Z"/><path class="cls-2" d="m402.19,121.58c9.56,0,20.84-4.44,27.33-13.83l1.37,12.14h19.47V0h-20.72v45.08c-5.98-9.22-19.24-12.15-28.12-12.15-26.98,0-42.52,19.66-42.52,44.25s17.24,44.4,43.2,44.4Zm1.54-67.97c14.17,0,23.91,10.42,23.91,23.57s-8.88,24.25-23.91,24.25-23.9-11.1-23.9-24.25,9.73-23.57,23.91-23.57Z"/><path class="cls-2" d="m305.14,32.94c-27.32,0-44.72,18.31-44.72,43.93,0,26.98,17.26,44.72,46.29,44.72,12.81,0,27.31-4.25,36.19-13.47l-13.32-13.15c-4.78,4.95-14.85,7.66-22.53,7.66-14.69,0-23.75-7.32-25.11-17.74h65.74c3.25-34.67-14.37-51.95-42.54-51.95Zm-22.86,34.7c3.07-10.93,12.27-16.26,23.54-16.26,11.95,0,20.52,5.33,21.88,16.26h-45.42Z"/><rect class="cls-2" x="467.93" y="35.51" width="20.83" height="84.38"/><rect class="cls-2" x="603.87" y="35.51" width="20.83" height="84.38"/><path class="cls-2" d="m673.86,102.8c-6.49,0-10.92-3.83-10.92-11.86v-37.33h23.4v-18.11h-23.23V11.67s-20.83,2.22-20.83,2.22v77.05c0,21,11.94,31.32,30.21,30.64,6.32-.17,11.27-1.19,17.25-3.59l-5.81-17.76c-3.07,1.54-6.83,2.56-10.08,2.56Z"/><rect class="cls-2" x="804.88" y="0" width="20.66" height="119.91"/><circle class="cls-1" cx="850.26" cy="109.35" r="12.19"/><path class="cls-2" d="m576.16,111.21c9.3-8.25,15.18-20.28,15.18-33.67,0-24.82-20.2-44.6-45.02-44.6s-45.01,19.78-45.01,44.6c0,13.38,5.88,25.42,15.18,33.67-13.34,9.4-22.08,25.98-22.08,43.51h20.89c0-17.11,13.92-33.16,31.03-33.16s31.03,16.05,31.03,33.16h20.89c0-17.53-8.74-34.11-22.08-43.51Zm-29.84-57.59c13.31,0,24.13,10.62,24.13,23.92s-10.83,23.89-24.13,23.89-24.13-10.59-24.13-23.89,10.82-23.92,24.13-23.92Z"/><path class="cls-2" d="m739.14,121.58c9.56,0,20.83-4.35,27.32-13.74l1.37,12.05h19.47V32.94s-19.77,0-19.77,0l-1.59,12.24c-5.98-9.22-18.6-12.24-27.48-12.24-26.98,0-42.52,19.75-42.52,44.34s17.25,44.31,43.2,44.31Zm1.53-67.97c14.17,0,23.91,10.51,23.91,23.66s-8.88,24.16-23.91,24.16-23.91-11.01-23.91-24.16,9.73-23.66,23.9-23.66Z"/></g></svg>