<?xml version="1.0" encoding="UTF-8"?>
<!DOCTYPE svg PUBLIC "-//W3C//DTD SVG 1.1//EN" "http://www.w3.org/Graphics/SVG/1.1/DTD/svg11.dtd">
<svg version="1.1" id="Ebene_1" xmlns="http://www.w3.org/2000/svg" xmlns:xlink="http://www.w3.org/1999/xlink" x="0px" y="0px" viewBox="0 0 120 61.969" xml:space="preserve">
							<g>
									<polygon points="15.017,34.231 10.621,19.838 0.258,21.632 10.108,46.235 10.069,61.431 19.98,59.717 20.023,44.75 
											30.275,16.438 19.471,18.305     "></polygon>
									<polygon points="43.791,38.617 53.247,36.977 53.259,28.43 43.753,30.067 43.779,23.157 53.948,21.4 53.927,12.347 
											34.337,15.735 34.311,57.243 54.891,53.675 54.901,44.451 43.795,46.371   "></polygon>
									<path d="M68.052,9.901L57.555,53.217l10.307-1.779l1.649-7.814l7.931-1.375l1.432,7.283l9.968-1.727L79.766,7.876
											L68.052,9.901z M70.884,35.284l2.764-13.91l2.514,12.997L70.884,35.284z"></path>
									<polygon points="110.144,2.618 110.147,18.018 102.14,19.402 102.135,4.008 92.386,5.692 92.36,47.195 
											102.162,45.499 102.18,28.57 110.184,27.186 110.17,44.12 119.976,42.416 120,0.916    "></polygon>
							</g>
					</svg>
